<svg version="1.1" viewBox="0.0 0.0 782.0 484.0" fill="none" stroke="none" stroke-linecap="square" stroke-miterlimit="10" width="782" height="484" xmlns:xlink="http://www.w3.org/1999/xlink" xmlns="http://www.w3.org/2000/svg"><path fill="#ffffff" d="M0 0L782.0 0L782.0 484.0L0 484.0L0 0Z" fill-rule="nonzero"/><path fill="#4285f4" d="M391.0 64.333336C495.06155 64.333336 581.31506 144.98785 588.2888 248.81544C595.2626 352.64307 520.5697 444.1078 417.44284 458.02393L391.0 262.06668Z" fill-rule="nonzero"/><path fill="#71c287" d="M390.9951 64.333336C390.99673 64.333336 390.99835 64.333336 391.0 64.333336L391.0 262.06668Z" fill-rule="nonzero"/><path fill="#fcd04f" d="M390.98773 64.333336C390.99017 64.333336 390.99265 64.333336 390.9951 64.333336L391.0 262.06668Z" fill-rule="nonzero"/><path fill="#f07b72" d="M390.93323 64.33334C390.9514 64.333336 390.96957 64.333336 390.98773 64.333336L391.0 262.06668Z" fill-rule="nonzero"/><path fill="#7baaf7" d="M390.79184 64.33344C390.839 64.3334 390.8861 64.33336 390.93323 64.33334L391.0 262.06668Z" fill-rule="nonzero"/><path fill="#46bdc6" d="M382.31134 64.52432C385.1365 64.40006 387.964 64.33642 390.79184 64.33344L391.0 262.06668Z" fill-rule="nonzero"/><path fill="#ff6d01" d="M367.25854 65.7638C372.25854 65.15909 377.2798 64.74563 382.31134 64.52432L391.0 262.06668Z" fill-rule="nonzero"/><path fill="#34a853" d="M317.94824 78.32252C333.7755 72.030014 350.3495 67.80884 367.25854 65.7638L391.0 262.06668Z" fill-rule="nonzero"/><path fill="#fbbc04" d="M272.22855 103.97867C286.26215 93.43524 301.63715 84.80738 317.94824 78.32252L391.0 262.06668Z" fill-rule="nonzero"/><path fill="#ea4335" d="M417.44284 458.02393C328.2632 470.058 242.20541 420.359 208.05696 337.1021C173.90852 253.84521 200.28311 158.03125 272.22855 103.97867L391.0 262.06668Z" fill-rule="nonzero"/><path fill="#1a1a1a" d="M24.746876 72.56771L25.809376 72.47396Q25.8875 73.13021 26.16875 73.53646Q26.45 73.94271 27.028126 74.208336Q27.621876 74.458336 28.35625 74.458336Q28.996876 74.458336 29.496876 74.270836Q29.996876 74.06771 30.23125 73.739586Q30.48125 73.395836 30.48125 73.00521Q30.48125 72.59896 30.246876 72.302086Q30.0125 71.989586 29.48125 71.78646Q29.121876 71.645836 27.934376 71.364586Q26.7625 71.083336 26.29375 70.833336Q25.66875 70.50521 25.371876 70.03646Q25.075 69.552086 25.075 68.958336Q25.075 68.31771 25.434376 67.75521Q25.809376 67.177086 26.5125 66.895836Q27.23125 66.59896 28.090626 66.59896Q29.04375 66.59896 29.778126 66.91146Q30.5125 67.208336 30.903126 67.81771Q31.29375 68.41146 31.325 69.16146L30.23125 69.239586Q30.1375 68.427086 29.621876 68.020836Q29.121876 67.59896 28.1375 67.59896Q27.10625 67.59896 26.6375 67.97396Q26.16875 68.34896 26.16875 68.88021Q26.16875 69.34896 26.496876 69.645836Q26.825 69.94271 28.2 70.25521Q29.590626 70.56771 30.10625 70.802086Q30.85625 71.16146 31.215626 71.69271Q31.575 72.208336 31.575 72.91146Q31.575 73.59896 31.184376 74.208336Q30.79375 74.802086 30.059376 75.145836Q29.325 75.47396 28.403126 75.47396Q27.23125 75.47396 26.434376 75.145836Q25.653126 74.802086 25.2 74.114586Q24.7625 73.427086 24.746876 72.56771ZM35.29375 74.395836L35.45 75.31771Q34.996876 75.41146 34.653126 75.41146Q34.075 75.41146 33.7625 75.239586Q33.45 75.052086 33.309376 74.75521Q33.184376 74.458336 33.184376 73.50521L33.184376 69.927086L32.41875 69.927086L32.41875 69.114586L33.184376 69.114586L33.184376 67.56771L34.23125 66.94271L34.23125 69.114586L35.29375 69.114586L35.29375 69.927086L34.23125 69.927086L34.23125 73.56771Q34.23125 74.020836 34.278126 74.145836Q34.340626 74.270836 34.465626 74.34896Q34.590626 74.427086 34.825 74.427086Q35.0125 74.427086 35.29375 74.395836ZM40.059376 74.56771Q39.465626 75.06771 38.91875 75.270836Q38.3875 75.47396 37.7625 75.47396Q36.73125 75.47396 36.184376 74.97396Q35.6375 74.47396 35.6375 73.69271Q35.6375 73.239586 35.840626 72.864586Q36.04375 72.47396 36.3875 72.25521Q36.73125 72.020836 37.153126 71.91146Q37.45 71.81771 38.090626 71.739586Q39.35625 71.59896 39.965626 71.38021Q39.965626 71.16146 39.965626 71.114586Q39.965626 70.458336 39.66875 70.19271Q39.2625 69.84896 38.465626 69.84896Q37.73125 69.84896 37.371876 70.114586Q37.0125 70.364586 36.840626 71.020836L35.809376 70.88021Q35.95 70.22396 36.278126 69.81771Q36.60625 69.41146 37.215626 69.19271Q37.825 68.97396 38.621876 68.97396Q39.41875 68.97396 39.91875 69.16146Q40.41875 69.34896 40.653126 69.63021Q40.8875 69.91146 40.98125 70.34896Q41.028126 70.614586 41.028126 71.31771L41.028126 72.72396Q41.028126 74.19271 41.090626 74.583336Q41.16875 74.97396 41.371876 75.333336L40.2625 75.333336Q40.10625 75.00521 40.059376 74.56771ZM39.965626 72.208336Q39.3875 72.44271 38.246876 72.614586Q37.590626 72.708336 37.325 72.833336Q37.059376 72.94271 36.903126 73.16146Q36.7625 73.38021 36.7625 73.66146Q36.7625 74.083336 37.075 74.364586Q37.403126 74.645836 38.0125 74.645836Q38.621876 74.645836 39.090626 74.38021Q39.575 74.114586 39.79375 73.645836Q39.965626 73.28646 39.965626 72.59896L39.965626 72.208336ZM45.29375 74.395836L45.45 75.31771Q44.996876 75.41146 44.653126 75.41146Q44.075 75.41146 43.7625 75.239586Q43.45 75.052086 43.309376 74.75521Q43.184376 74.458336 43.184376 73.50521L43.184376 69.927086L42.41875 69.927086L42.41875 69.114586L43.184376 69.114586L43.184376 67.56771L44.23125 66.94271L44.23125 69.114586L45.29375 69.114586L45.29375 69.927086L44.23125 69.927086L44.23125 73.56771Q44.23125 74.020836 44.278126 74.145836Q44.340626 74.270836 44.465626 74.34896Q44.590626 74.427086 44.825 74.427086Q45.0125 74.427086 45.29375 74.395836ZM50.246876 73.333336L51.340626 73.458336Q51.090626 74.41146 50.3875 74.94271Q49.684376 75.47396 48.60625 75.47396Q47.246876 75.47396 46.434376 74.63021Q45.6375 73.78646 45.6375 72.270836Q45.6375 70.708336 46.45 69.84896Q47.2625 68.97396 48.54375 68.97396Q49.79375 68.97396 50.575 69.81771Q51.371876 70.66146 51.371876 72.208336Q51.371876 72.302086 51.371876 72.489586L46.73125 72.489586Q46.79375 73.520836 47.309376 74.06771Q47.825 74.59896 48.60625 74.59896Q49.184376 74.59896 49.590626 74.302086Q50.0125 73.989586 50.246876 73.333336ZM46.79375 71.63021L50.2625 71.63021Q50.2 70.833336 49.871876 70.44271Q49.35625 69.833336 48.559376 69.833336Q47.825 69.833336 47.325 70.31771Q46.840626 70.802086 46.79375 71.63021ZM57.153126 71.958336L57.153126 70.958336L60.778126 70.94271L60.778126 74.13021Q59.95 74.802086 59.059376 75.145836Q58.16875 75.47396 57.23125 75.47396Q55.965626 75.47396 54.91875 74.94271Q53.8875 74.395836 53.35625 73.38021Q52.840626 72.34896 52.840626 71.083336Q52.840626 69.81771 53.35625 68.739586Q53.8875 67.645836 54.871876 67.13021Q55.85625 66.59896 57.1375 66.59896Q58.075 66.59896 58.825 66.895836Q59.575 67.19271 59.996876 67.739586Q60.434376 68.270836 60.653126 69.145836L59.6375 69.427086Q59.434376 68.770836 59.1375 68.395836Q58.85625 68.020836 58.325 67.802086Q57.79375 67.56771 57.153126 67.56771Q56.371876 67.56771 55.79375 67.802086Q55.23125 68.03646 54.871876 68.427086Q54.528126 68.81771 54.340626 69.28646Q54.0125 70.083336 54.0125 71.00521Q54.0125 72.16146 54.403126 72.94271Q54.809376 73.708336 55.559376 74.083336Q56.309376 74.458336 57.16875 74.458336Q57.903126 74.458336 58.60625 74.177086Q59.309376 73.88021 59.66875 73.56771L59.66875 71.958336L57.153126 71.958336ZM66.24687 73.333336L67.34062 73.458336Q67.09062 74.41146 66.3875 74.94271Q65.68437 75.47396 64.60625 75.47396Q63.246876 75.47396 62.434376 74.63021Q61.6375 73.78646 61.6375 72.270836Q61.6375 70.708336 62.45 69.84896Q63.2625 68.97396 64.54375 68.97396Q65.79375 68.97396 66.575 69.81771Q67.37187 70.66146 67.37187 72.208336Q67.37187 72.302086 67.37187 72.489586L62.73125 72.489586Q62.79375 73.520836 63.309376 74.06771Q63.825 74.59896 64.60625 74.59896Q65.18437 74.59896 65.59062 74.302086Q66.0125 73.989586 66.24687 73.333336ZM62.79375 71.63021L66.2625 71.63021Q66.2 70.833336 65.87187 70.44271Q65.35625 69.833336 64.55937 69.833336Q63.825 69.833336 63.325 70.31771Q62.840626 70.802086 62.79375 71.63021ZM71.29375 74.395836L71.45 75.31771Q70.99687 75.41146 70.65312 75.41146Q70.075 75.41146 69.7625 75.239586Q69.45 75.052086 69.30937 74.75521Q69.18437 74.458336 69.18437 73.50521L69.18437 69.927086L68.41875 69.927086L68.41875 69.114586L69.18437 69.114586L69.18437 67.56771L70.23125 66.94271L70.23125 69.114586L71.29375 69.114586L71.29375 69.927086L70.23125 69.927086L70.23125 73.56771Q70.23125 74.020836 70.27812 74.145836Q70.34062 74.270836 70.46562 74.34896Q70.59062 74.427086 70.825 74.427086Q71.0125 74.427086 71.29375 74.395836ZM71.18437 75.333336L74.48125 66.739586L75.7 66.739586L79.21562 75.333336L77.93437 75.333336L76.91875 72.72396L73.34062 72.72396L72.3875 75.333336L71.18437 75.333336ZM73.66875 71.802086L76.575 71.802086L75.68437 69.427086Q75.2625 68.34896 75.075 67.645836Q74.90312 68.47396 74.60625 69.28646L73.66875 71.802086ZM83.05937 73.052086L84.09062 73.19271Q83.91875 74.25521 83.21562 74.864586Q82.5125 75.47396 81.49687 75.47396Q80.21562 75.47396 79.43437 74.645836Q78.66875 73.802086 78.66875 72.239586Q78.66875 71.239586 78.99687 70.489586Q79.34062 69.72396 80.0125 69.34896Q80.7 68.97396 81.5125 68.97396Q82.5125 68.97396 83.15312 69.489586Q83.80937 69.989586 83.99687 70.94271L82.96562 71.09896Q82.825 70.47396 82.45 70.16146Q82.075 69.833336 81.54375 69.833336Q80.74687 69.833336 80.24687 70.41146Q79.74687 70.97396 79.74687 72.208336Q79.74687 73.47396 80.23125 74.03646Q80.71562 74.59896 81.48125 74.59896Q82.10625 74.59896 82.5125 74.22396Q82.93437 73.84896 83.05937 73.052086ZM87.29375 74.395836L87.45 75.31771Q86.99687 75.41146 86.65312 75.41146Q86.075 75.41146 85.7625 75.239586Q85.45 75.052086 85.30937 74.75521Q85.18437 74.458336 85.18437 73.50521L85.18437 69.927086L84.41875 69.927086L84.41875 69.114586L85.18437 69.114586L85.18437 67.56771L86.23125 66.94271L86.23125 69.114586L87.29375 69.114586L87.29375 69.927086L86.23125 69.927086L86.23125 73.56771Q86.23125 74.020836 86.27812 74.145836Q86.34062 74.270836 86.46562 74.34896Q86.59062 74.427086 86.825 74.427086Q87.0125 74.427086 87.29375 74.395836ZM87.60625 72.22396Q87.60625 70.489586 88.55937 69.66146Q89.35625 68.97396 90.5125 68.97396Q91.79375 68.97396 92.60625 69.81771Q93.43437 70.645836 93.43437 72.13021Q93.43437 73.333336 93.075 74.020836Q92.71562 74.708336 92.0125 75.09896Q91.325 75.47396 90.5125 75.47396Q89.21562 75.47396 88.40312 74.645836Q87.60625 73.802086 87.60625 72.22396ZM88.68437 72.22396Q88.68437 73.41146 89.2 74.00521Q89.73125 74.59896 90.5125 74.59896Q91.30937 74.59896 91.825 74.00521Q92.34062 73.41146 92.34062 72.19271Q92.34062 71.03646 91.80937 70.44271Q91.29375 69.84896 90.5125 69.84896Q89.73125 69.84896 89.2 70.44271Q88.68437 71.020836 88.68437 72.22396ZM94.98125 75.333336L94.98125 69.114586L95.93437 69.114586L95.93437 70.052086Q96.29375 69.395836 96.59062 69.19271Q96.90312 68.97396 97.27812 68.97396Q97.80937 68.97396 98.35625 69.302086L97.99687 70.28646Q97.60625 70.052086 97.23125 70.052086Q96.87187 70.052086 96.59062 70.270836Q96.325 70.47396 96.21562 70.84896Q96.02812 71.41146 96.02812 72.06771L96.02812 75.333336L94.98125 75.333336Z" fill-rule="nonzero"/><path fill="#9e9e9e" d="M28.66875 92.333336L27.621876 92.333336L27.621876 85.614586Q27.23125 85.97396 26.60625 86.34896Q25.996876 86.708336 25.5125 86.88021L25.5125 85.864586Q26.3875 85.44271 27.04375 84.864586Q27.715626 84.270836 27.996876 83.708336L28.66875 83.708336L28.66875 92.333336ZM32.29375 92.333336L32.29375 91.13021L33.496876 91.13021L33.496876 92.333336L32.29375 92.333336ZM40.246876 91.31771L40.246876 92.333336L34.559376 92.333336Q34.559376 91.958336 34.684376 91.59896Q34.903126 91.020836 35.371876 90.458336Q35.85625 89.895836 36.7625 89.16146Q38.16875 88.00521 38.653126 87.333336Q39.153126 86.66146 39.153126 86.06771Q39.153126 85.44271 38.7 85.020836Q38.246876 84.583336 37.528126 84.583336Q36.7625 84.583336 36.309376 85.03646Q35.85625 85.489586 35.840626 86.302086L34.7625 86.19271Q34.871876 84.97396 35.590626 84.34896Q36.325 83.708336 37.559376 83.708336Q38.79375 83.708336 39.5125 84.395836Q40.23125 85.083336 40.23125 86.09896Q40.23125 86.614586 40.0125 87.114586Q39.809376 87.59896 39.309376 88.16146Q38.825 88.708336 37.7 89.66146Q36.746876 90.458336 36.465626 90.75521Q36.2 91.03646 36.028126 91.31771L40.246876 91.31771ZM41.903126 85.802086Q41.903126 84.88021 42.35625 84.239586Q42.825 83.59896 43.7 83.59896Q44.5125 83.59896 45.04375 84.177086Q45.575 84.75521 45.575 85.864586Q45.575 86.958336 45.028126 87.552086Q44.496876 88.13021 43.715626 88.13021Q42.934376 88.13021 42.41875 87.552086Q41.903126 86.97396 41.903126 85.802086ZM43.73125 84.31771Q43.340626 84.31771 43.075 84.66146Q42.825 85.00521 42.825 85.91146Q42.825 86.739586 43.075 87.083336Q43.340626 87.41146 43.73125 87.41146Q44.1375 87.41146 44.3875 87.06771Q44.653126 86.72396 44.653126 85.833336Q44.653126 84.989586 44.3875 84.66146Q44.121876 84.31771 43.73125 84.31771ZM43.73125 92.645836L48.434376 83.59896L49.29375 83.59896L44.60625 92.645836L43.73125 92.645836ZM47.45 90.31771Q47.45 89.395836 47.903126 88.75521Q48.371876 88.114586 49.2625 88.114586Q50.075 88.114586 50.60625 88.69271Q51.1375 89.25521 51.1375 90.38021Q51.1375 91.47396 50.590626 92.06771Q50.059376 92.645836 49.2625 92.645836Q48.496876 92.645836 47.965626 92.06771Q47.45 91.489586 47.45 90.31771ZM49.29375 88.833336Q48.8875 88.833336 48.621876 89.177086Q48.371876 89.520836 48.371876 90.427086Q48.371876 91.239586 48.6375 91.583336Q48.903126 91.927086 49.29375 91.927086Q49.684376 91.927086 49.95 91.583336Q50.215626 91.239586 50.215626 90.333336Q50.215626 89.50521 49.95 89.177086Q49.684376 88.833336 49.29375 88.833336Z" fill-rule="nonzero"/><path stroke="#757575" stroke-width="1.0" stroke-linecap="butt" d="M24.2 79.833336L187.26666 79.833336L375.58444 74.8536" fill-rule="nonzero"/><path fill="#9e9e9e" d="M377.58444 74.8536C377.58444 73.74903 376.68903 72.8536 375.58444 72.8536C374.4799 72.8536 373.58444 73.74903 373.58444 74.8536C373.58444 75.958176 374.4799 76.8536 375.58444 76.8536C376.68903 76.8536 377.58444 75.958176 377.58444 74.8536" fill-rule="nonzero"/><path fill="#1a1a1a" d="M31.2625 103.31771L32.3875 103.614586Q32.028126 105.00521 31.10625 105.739586Q30.184376 106.47396 28.840626 106.47396Q27.45 106.47396 26.575 105.91146Q25.7 105.34896 25.246876 104.28646Q24.79375 103.208336 24.79375 101.97396Q24.79375 100.63021 25.309376 99.63021Q25.825 98.63021 26.7625 98.114586Q27.715626 97.59896 28.85625 97.59896Q30.1375 97.59896 31.0125 98.25521Q31.903126 98.91146 32.246876 100.09896L31.121876 100.364586Q30.825 99.427086 30.246876 99.00521Q29.684376 98.56771 28.825 98.56771Q27.840626 98.56771 27.16875 99.052086Q26.5125 99.520836 26.23125 100.31771Q25.965626 101.114586 25.965626 101.97396Q25.965626 103.06771 26.278126 103.88021Q26.60625 104.69271 27.278126 105.09896Q27.95 105.50521 28.746876 105.50521Q29.7 105.50521 30.35625 104.958336Q31.028126 104.41146 31.2625 103.31771ZM33.996876 106.333336L33.996876 97.739586L35.04375 97.739586L35.04375 100.81771Q35.778126 99.97396 36.903126 99.97396Q37.60625 99.97396 38.10625 100.25521Q38.621876 100.520836 38.840626 101.00521Q39.059376 101.47396 39.059376 102.395836L39.059376 106.333336L38.0125 106.333336L38.0125 102.395836Q38.0125 101.59896 37.66875 101.239586Q37.325 100.88021 36.7 100.88021Q36.23125 100.88021 35.809376 101.13021Q35.403126 101.364586 35.215626 101.78646Q35.04375 102.19271 35.04375 102.927086L35.04375 106.333336L33.996876 106.333336ZM45.059376 105.56771Q44.465626 106.06771 43.91875 106.270836Q43.3875 106.47396 42.7625 106.47396Q41.73125 106.47396 41.184376 105.97396Q40.6375 105.47396 40.6375 104.69271Q40.6375 104.239586 40.840626 103.864586Q41.04375 103.47396 41.3875 103.25521Q41.73125 103.020836 42.153126 102.91146Q42.45 102.81771 43.090626 102.739586Q44.35625 102.59896 44.965626 102.38021Q44.965626 102.16146 44.965626 102.114586Q44.965626 101.458336 44.66875 101.19271Q44.2625 100.84896 43.465626 100.84896Q42.73125 100.84896 42.371876 101.114586Q42.0125 101.364586 41.840626 102.020836L40.809376 101.88021Q40.95 101.22396 41.278126 100.81771Q41.60625 100.41146 42.215626 100.19271Q42.825 99.97396 43.621876 99.97396Q44.41875 99.97396 44.91875 100.16146Q45.41875 100.34896 45.653126 100.63021Q45.8875 100.91146 45.98125 101.34896Q46.028126 101.614586 46.028126 102.31771L46.028126 103.72396Q46.028126 105.19271 46.090626 105.583336Q46.16875 105.97396 46.371876 106.333336L45.2625 106.333336Q45.10625 106.00521 45.059376 105.56771ZM44.965626 103.208336Q44.3875 103.44271 43.246876 103.614586Q42.590626 103.708336 42.325 103.833336Q42.059376 103.94271 41.903126 104.16146Q41.7625 104.38021 41.7625 104.66146Q41.7625 105.083336 42.075 105.364586Q42.403126 105.645836 43.0125 105.645836Q43.621876 105.645836 44.090626 105.38021Q44.575 105.114586 44.79375 104.645836Q44.965626 104.28646 44.965626 103.59896L44.965626 103.208336ZM47.996876 98.958336L47.996876 97.739586L49.059376 97.739586L49.059376 98.958336L47.996876 98.958336ZM47.996876 106.333336L47.996876 100.114586L49.059376 100.114586L49.059376 106.333336L47.996876 106.333336ZM50.996876 106.333336L50.996876 100.114586L51.934376 100.114586L51.934376 100.989586Q52.621876 99.97396 53.91875 99.97396Q54.48125 99.97396 54.95 100.177086Q55.434376 100.38021 55.66875 100.708336Q55.903126 101.03646 55.996876 101.47396Q56.04375 101.770836 56.04375 102.50521L56.04375 106.333336L54.996876 106.333336L54.996876 102.552086Q54.996876 101.895836 54.871876 101.583336Q54.746876 101.270836 54.434376 101.083336Q54.121876 100.88021 53.7 100.88021Q53.028126 100.88021 52.528126 101.31771Q52.04375 101.739586 52.04375 102.927086L52.04375 106.333336L50.996876 106.333336ZM62.153126 102.958336L62.153126 101.958336L65.77812 101.94271L65.77812 105.13021Q64.95 105.802086 64.05937 106.145836Q63.16875 106.47396 62.23125 106.47396Q60.965626 106.47396 59.91875 105.94271Q58.8875 105.395836 58.35625 104.38021Q57.840626 103.34896 57.840626 102.083336Q57.840626 100.81771 58.35625 99.739586Q58.8875 98.645836 59.871876 98.13021Q60.85625 97.59896 62.1375 97.59896Q63.075 97.59896 63.825 97.895836Q64.575 98.19271 64.99687 98.739586Q65.43437 99.270836 65.65312 100.145836L64.6375 100.427086Q64.43437 99.770836 64.1375 99.395836Q63.85625 99.020836 63.325 98.802086Q62.79375 98.56771 62.153126 98.56771Q61.371876 98.56771 60.79375 98.802086Q60.23125 99.03646 59.871876 99.427086Q59.528126 99.81771 59.340626 100.28646Q59.0125 101.083336 59.0125 102.00521Q59.0125 103.16146 59.403126 103.94271Q59.809376 104.708336 60.559376 105.083336Q61.309376 105.458336 62.16875 105.458336Q62.903126 105.458336 63.60625 105.177086Q64.30937 104.88021 64.66875 104.56771L64.66875 102.958336L62.153126 102.958336ZM71.24687 104.333336L72.34062 104.458336Q72.09062 105.41146 71.3875 105.94271Q70.68437 106.47396 69.60625 106.47396Q68.24687 106.47396 67.43437 105.63021Q66.6375 104.78646 66.6375 103.270836Q66.6375 101.708336 67.45 100.84896Q68.2625 99.97396 69.54375 99.97396Q70.79375 99.97396 71.575 100.81771Q72.37187 101.66146 72.37187 103.208336Q72.37187 103.302086 72.37187 103.489586L67.73125 103.489586Q67.79375 104.520836 68.30937 105.06771Q68.825 105.59896 69.60625 105.59896Q70.18437 105.59896 70.59062 105.302086Q71.0125 104.989586 71.24687 104.333336ZM67.79375 102.63021L71.2625 102.63021Q71.2 101.833336 70.87187 101.44271Q70.35625 100.833336 69.55937 100.833336Q68.825 100.833336 68.325 101.31771Q67.84062 101.802086 67.79375 102.63021ZM76.29375 105.395836L76.45 106.31771Q75.99687 106.41146 75.65312 106.41146Q75.075 106.41146 74.7625 106.239586Q74.45 106.052086 74.30937 105.75521Q74.18437 105.458336 74.18437 104.50521L74.18437 100.927086L73.41875 100.927086L73.41875 100.114586L74.18437 100.114586L74.18437 98.56771L75.23125 97.94271L75.23125 100.114586L76.29375 100.114586L76.29375 100.927086L75.23125 100.927086L75.23125 104.56771Q75.23125 105.020836 75.27812 105.145836Q75.34062 105.270836 75.46562 105.34896Q75.59062 105.427086 75.825 105.427086Q76.0125 105.427086 76.29375 105.395836ZM77.12187 106.333336L77.12187 97.739586L78.27812 97.739586L82.79375 104.489586L82.79375 97.739586L83.8875 97.739586L83.8875 106.333336L82.71562 106.333336L78.2 99.583336L78.2 106.333336L77.12187 106.333336ZM85.60625 103.22396Q85.60625 101.489586 86.55937 100.66146Q87.35625 99.97396 88.5125 99.97396Q89.79375 99.97396 90.60625 100.81771Q91.43437 101.645836 91.43437 103.13021Q91.43437 104.333336 91.075 105.020836Q90.71562 105.708336 90.0125 106.09896Q89.325 106.47396 88.5125 106.47396Q87.21562 106.47396 86.40312 105.645836Q85.60625 104.802086 85.60625 103.22396ZM86.68437 103.22396Q86.68437 104.41146 87.2 105.00521Q87.73125 105.59896 88.5125 105.59896Q89.30937 105.59896 89.825 105.00521Q90.34062 104.41146 90.34062 103.19271Q90.34062 102.03646 89.80937 101.44271Q89.29375 100.84896 88.5125 100.84896Q87.73125 100.84896 87.2 101.44271Q86.68437 102.020836 86.68437 103.22396ZM97.02812 106.333336L97.02812 105.552086Q96.43437 106.47396 95.29375 106.47396Q94.54375 106.47396 93.91875 106.06771Q93.29375 105.645836 92.95 104.91146Q92.60625 104.177086 92.60625 103.22396Q92.60625 102.302086 92.91875 101.53646Q93.23125 100.770836 93.85625 100.38021Q94.48125 99.97396 95.24687 99.97396Q95.80937 99.97396 96.24687 100.208336Q96.68437 100.44271 96.96562 100.81771L96.96562 97.739586L98.0125 97.739586L98.0125 106.333336L97.02812 106.333336ZM93.7 103.22396Q93.7 104.427086 94.2 105.020836Q94.7 105.59896 95.3875 105.59896Q96.075 105.59896 96.55937 105.03646Q97.04375 104.47396 97.04375 103.31771Q97.04375 102.03646 96.54375 101.44271Q96.05937 100.84896 95.34062 100.84896Q94.6375 100.84896 94.16875 101.427086Q93.7 101.989586 93.7 103.22396ZM104.24687 104.333336L105.34062 104.458336Q105.09062 105.41146 104.3875 105.94271Q103.68437 106.47396 102.60625 106.47396Q101.24687 106.47396 100.43437 105.63021Q99.6375 104.78646 99.6375 103.270836Q99.6375 101.708336 100.45 100.84896Q101.2625 99.97396 102.54375 99.97396Q103.79375 99.97396 104.575 100.81771Q105.37187 101.66146 105.37187 103.208336Q105.37187 103.302086 105.37187 103.489586L100.73125 103.489586Q100.79375 104.520836 101.30937 105.06771Q101.825 105.59896 102.60625 105.59896Q103.18437 105.59896 103.59062 105.302086Q104.0125 104.989586 104.24687 104.333336ZM100.79375 102.63021L104.2625 102.63021Q104.2 101.833336 103.87187 101.44271Q103.35625 100.833336 102.55937 100.833336Q101.825 100.833336 101.325 101.31771Q100.84062 101.802086 100.79375 102.63021Z" fill-rule="nonzero"/><path fill="#9e9e9e" d="M28.075 123.333336L28.075 121.270836L24.35625 121.270836L24.35625 120.302086L28.278126 114.739586L29.1375 114.739586L29.1375 120.302086L30.29375 120.302086L30.29375 121.270836L29.1375 121.270836L29.1375 123.333336L28.075 123.333336ZM28.075 120.302086L28.075 116.44271L25.3875 120.302086L28.075 120.302086ZM32.29375 123.333336L32.29375 122.13021L33.496876 122.13021L33.496876 123.333336L32.29375 123.333336ZM38.66875 123.333336L37.621876 123.333336L37.621876 116.614586Q37.23125 116.97396 36.60625 117.34896Q35.996876 117.708336 35.5125 117.88021L35.5125 116.864586Q36.3875 116.44271 37.04375 115.864586Q37.715626 115.270836 37.996876 114.708336L38.66875 114.708336L38.66875 123.333336ZM41.903126 116.802086Q41.903126 115.88021 42.35625 115.239586Q42.825 114.59896 43.7 114.59896Q44.5125 114.59896 45.04375 115.177086Q45.575 115.75521 45.575 116.864586Q45.575 117.958336 45.028126 118.552086Q44.496876 119.13021 43.715626 119.13021Q42.934376 119.13021 42.41875 118.552086Q41.903126 117.97396 41.903126 116.802086ZM43.73125 115.31771Q43.340626 115.31771 43.075 115.66146Q42.825 116.00521 42.825 116.91146Q42.825 117.739586 43.075 118.083336Q43.340626 118.41146 43.73125 118.41146Q44.1375 118.41146 44.3875 118.06771Q44.653126 117.72396 44.653126 116.833336Q44.653126 115.989586 44.3875 115.66146Q44.121876 115.31771 43.73125 115.31771ZM43.73125 123.645836L48.434376 114.59896L49.29375 114.59896L44.60625 123.645836L43.73125 123.645836ZM47.45 121.31771Q47.45 120.395836 47.903126 119.75521Q48.371876 119.114586 49.2625 119.114586Q50.075 119.114586 50.60625 119.69271Q51.1375 120.25521 51.1375 121.38021Q51.1375 122.47396 50.590626 123.06771Q50.059376 123.645836 49.2625 123.645836Q48.496876 123.645836 47.965626 123.06771Q47.45 122.489586 47.45 121.31771ZM49.29375 119.833336Q48.8875 119.833336 48.621876 120.177086Q48.371876 120.520836 48.371876 121.427086Q48.371876 122.239586 48.6375 122.583336Q48.903126 122.927086 49.29375 122.927086Q49.684376 122.927086 49.95 122.583336Q50.215626 122.239586 50.215626 121.333336Q50.215626 120.50521 49.95 120.177086Q49.684376 119.833336 49.29375 119.833336Z" fill-rule="nonzero"/><path stroke="#757575" stroke-width="1.0" stroke-linecap="butt" d="M24.2 110.833336L187.26666 110.833336L344.63785 80.03117" fill-rule="nonzero"/><path fill="#9e9e9e" d="M346.63785 80.03117C346.63785 78.926605 345.7424 78.03117 344.63785 78.03117C343.53326 78.03117 342.63785 78.926605 342.63785 80.03117C342.63785 81.13574 343.53326 82.03117 344.63785 82.03117C345.7424 82.03117 346.63785 81.13574 346.63785 80.03117" fill-rule="nonzero"/><path fill="#1a1a1a" d="M24.746876 134.5677L25.809376 134.47395Q25.8875 135.1302 26.16875 135.53645Q26.45 135.9427 27.028126 136.20833Q27.621876 136.45833 28.35625 136.45833Q28.996876 136.45833 29.496876 136.27083Q29.996876 136.0677 30.23125 135.73958Q30.48125 135.39583 30.48125 135.0052Q30.48125 134.59895 30.246876 134.30208Q30.0125 133.98958 29.48125 133.78645Q29.121876 133.64583 27.934376 133.36458Q26.7625 133.08333 26.29375 132.83333Q25.66875 132.5052 25.371876 132.03645Q25.075 131.55208 25.075 130.95833Q25.075 130.3177 25.434376 129.7552Q25.809376 129.17708 26.5125 128.89583Q27.23125 128.59895 28.090626 128.59895Q29.04375 128.59895 29.778126 128.91145Q30.5125 129.20833 30.903126 129.8177Q31.29375 130.41145 31.325 131.16145L30.23125 131.23958Q30.1375 130.42708 29.621876 130.02083Q29.121876 129.59895 28.1375 129.59895Q27.10625 129.59895 26.6375 129.97395Q26.16875 130.34895 26.16875 130.8802Q26.16875 131.34895 26.496876 131.64583Q26.825 131.9427 28.2 132.2552Q29.590626 132.5677 30.10625 132.80208Q30.85625 133.16145 31.215626 133.6927Q31.575 134.20833 31.575 134.91145Q31.575 135.59895 31.184376 136.20833Q30.79375 136.80208 30.059376 137.14583Q29.325 137.47395 28.403126 137.47395Q27.23125 137.47395 26.434376 137.14583Q25.653126 136.80208 25.2 136.11458Q24.7625 135.42708 24.746876 134.5677ZM35.29375 136.39583L35.45 137.3177Q34.996876 137.41145 34.653126 137.41145Q34.075 137.41145 33.7625 137.23958Q33.45 137.05208 33.309376 136.7552Q33.184376 136.45833 33.184376 135.5052L33.184376 131.92708L32.41875 131.92708L32.41875 131.11458L33.184376 131.11458L33.184376 129.5677L34.23125 128.9427L34.23125 131.11458L35.29375 131.11458L35.29375 131.92708L34.23125 131.92708L34.23125 135.5677Q34.23125 136.02083 34.278126 136.14583Q34.340626 136.27083 34.465626 136.34895Q34.590626 136.42708 34.825 136.42708Q35.0125 136.42708 35.29375 136.39583ZM40.059376 136.5677Q39.465626 137.0677 38.91875 137.27083Q38.3875 137.47395 37.7625 137.47395Q36.73125 137.47395 36.184376 136.97395Q35.6375 136.47395 35.6375 135.6927Q35.6375 135.23958 35.840626 134.86458Q36.04375 134.47395 36.3875 134.2552Q36.73125 134.02083 37.153126 133.91145Q37.45 133.8177 38.090626 133.73958Q39.35625 133.59895 39.965626 133.3802Q39.965626 133.16145 39.965626 133.11458Q39.965626 132.45833 39.66875 132.1927Q39.2625 131.84895 38.465626 131.84895Q37.73125 131.84895 37.371876 132.11458Q37.0125 132.36458 36.840626 133.02083L35.809376 132.8802Q35.95 132.22395 36.278126 131.8177Q36.60625 131.41145 37.215626 131.1927Q37.825 130.97395 38.621876 130.97395Q39.41875 130.97395 39.91875 131.16145Q40.41875 131.34895 40.653126 131.6302Q40.8875 131.91145 40.98125 132.34895Q41.028126 132.61458 41.028126 133.3177L41.028126 134.72395Q41.028126 136.1927 41.090626 136.58333Q41.16875 136.97395 41.371876 137.33333L40.2625 137.33333Q40.10625 137.0052 40.059376 136.5677ZM39.965626 134.20833Q39.3875 134.4427 38.246876 134.61458Q37.590626 134.70833 37.325 134.83333Q37.059376 134.9427 36.903126 135.16145Q36.7625 135.3802 36.7625 135.66145Q36.7625 136.08333 37.075 136.36458Q37.403126 136.64583 38.0125 136.64583Q38.621876 136.64583 39.090626 136.3802Q39.575 136.11458 39.79375 135.64583Q39.965626 135.28645 39.965626 134.59895L39.965626 134.20833ZM45.29375 136.39583L45.45 137.3177Q44.996876 137.41145 44.653126 137.41145Q44.075 137.41145 43.7625 137.23958Q43.45 137.05208 43.309376 136.7552Q43.184376 136.45833 43.184376 135.5052L43.184376 131.92708L42.41875 131.92708L42.41875 131.11458L43.184376 131.11458L43.184376 129.5677L44.23125 128.9427L44.23125 131.11458L45.29375 131.11458L45.29375 131.92708L44.23125 131.92708L44.23125 135.5677Q44.23125 136.02083 44.278126 136.14583Q44.340626 136.27083 44.465626 136.34895Q44.590626 136.42708 44.825 136.42708Q45.0125 136.42708 45.29375 136.39583ZM50.246876 135.33333L51.340626 135.45833Q51.090626 136.41145 50.3875 136.9427Q49.684376 137.47395 48.60625 137.47395Q47.246876 137.47395 46.434376 136.6302Q45.6375 135.78645 45.6375 134.27083Q45.6375 132.70833 46.45 131.84895Q47.2625 130.97395 48.54375 130.97395Q49.79375 130.97395 50.575 131.8177Q51.371876 132.66145 51.371876 134.20833Q51.371876 134.30208 51.371876 134.48958L46.73125 134.48958Q46.79375 135.52083 47.309376 136.0677Q47.825 136.59895 48.60625 136.59895Q49.184376 136.59895 49.590626 136.30208Q50.0125 135.98958 50.246876 135.33333ZM46.79375 133.6302L50.2625 133.6302Q50.2 132.83333 49.871876 132.4427Q49.35625 131.83333 48.559376 131.83333Q47.825 131.83333 47.325 132.3177Q46.840626 132.80208 46.79375 133.6302ZM53.075 137.33333L53.075 128.73958L54.215626 128.73958L54.215626 136.3177L58.45 136.3177L58.45 137.33333L53.075 137.33333ZM59.60625 134.22395Q59.60625 132.48958 60.559376 131.66145Q61.35625 130.97395 62.5125 130.97395Q63.79375 130.97395 64.60625 131.8177Q65.43437 132.64583 65.43437 134.1302Q65.43437 135.33333 65.075 136.02083Q64.71562 136.70833 64.0125 137.09895Q63.325 137.47395 62.5125 137.47395Q61.215626 137.47395 60.403126 136.64583Q59.60625 135.80208 59.60625 134.22395ZM60.684376 134.22395Q60.684376 135.41145 61.2 136.0052Q61.73125 136.59895 62.5125 136.59895Q63.309376 136.59895 63.825 136.0052Q64.34062 135.41145 64.34062 134.1927Q64.34062 133.03645 63.809376 132.4427Q63.29375 131.84895 62.5125 131.84895Q61.73125 131.84895 61.2 132.4427Q60.684376 133.02083 60.684376 134.22395ZM66.60625 134.22395Q66.60625 132.48958 67.55937 131.66145Q68.35625 130.97395 69.5125 130.97395Q70.79375 130.97395 71.60625 131.8177Q72.43437 132.64583 72.43437 134.1302Q72.43437 135.33333 72.075 136.02083Q71.71562 136.70833 71.0125 137.09895Q70.325 137.47395 69.5125 137.47395Q68.21562 137.47395 67.40312 136.64583Q66.60625 135.80208 66.60625 134.22395ZM67.68437 134.22395Q67.68437 135.41145 68.2 136.0052Q68.73125 136.59895 69.5125 136.59895Q70.30937 136.59895 70.825 136.0052Q71.34062 135.41145 71.34062 134.1927Q71.34062 133.03645 70.80937 132.4427Q70.29375 131.84895 69.5125 131.84895Q68.73125 131.84895 68.2 132.4427Q67.68437 133.02083 67.68437 134.22395ZM73.99687 137.33333L73.99687 128.73958L75.05937 128.73958L75.05937 133.64583L77.54375 131.11458L78.91875 131.11458L76.52812 133.41145L79.15312 137.33333L77.85625 137.33333L75.79375 134.14583L75.05937 134.86458L75.05937 137.33333L73.99687 137.33333ZM84.075 137.33333L84.075 136.41145Q83.34062 137.47395 82.09062 137.47395Q81.54375 137.47395 81.05937 137.27083Q80.59062 137.05208 80.35625 136.73958Q80.12187 136.41145 80.02812 135.9427Q79.96562 135.64583 79.96562 134.95833L79.96562 131.11458L81.02812 131.11458L81.02812 134.5677Q81.02812 135.3802 81.09062 135.67708Q81.18437 136.08333 81.49687 136.33333Q81.825 136.5677 82.30937 136.5677Q82.77812 136.5677 83.18437 136.33333Q83.60625 136.08333 83.77812 135.66145Q83.96562 135.23958 83.96562 134.4427L83.96562 131.11458L85.0125 131.11458L85.0125 137.33333L84.075 137.33333ZM86.99687 139.72395L86.99687 131.11458L87.95 131.11458L87.95 131.91145Q88.29375 131.4427 88.71562 131.20833Q89.15312 130.97395 89.7625 130.97395Q90.55937 130.97395 91.16875 131.3802Q91.77812 131.78645 92.075 132.53645Q92.3875 133.28645 92.3875 134.17708Q92.3875 135.1302 92.04375 135.89583Q91.71562 136.66145 91.05937 137.0677Q90.40312 137.47395 89.68437 137.47395Q89.15312 137.47395 88.73125 137.2552Q88.30937 137.02083 88.04375 136.6927L88.04375 139.72395L86.99687 139.72395ZM87.95 134.2552Q87.95 135.45833 88.43437 136.03645Q88.91875 136.59895 89.60625 136.59895Q90.30937 136.59895 90.80937 136.0052Q91.30937 135.41145 91.30937 134.16145Q91.30937 132.97395 90.825 132.39583Q90.34062 131.80208 89.65312 131.80208Q88.98125 131.80208 88.46562 132.42708Q87.95 133.05208 87.95 134.2552ZM94.325 137.33333L94.325 128.73958L95.45 128.73958L95.45 137.33333L94.325 137.33333ZM97.12187 137.33333L97.12187 128.73958L100.09062 128.73958Q101.09062 128.73958 101.62187 128.86458Q102.35625 129.03645 102.87187 129.47395Q103.55937 130.05208 103.8875 130.95833Q104.23125 131.84895 104.23125 132.98958Q104.23125 133.97395 103.99687 134.72395Q103.77812 135.47395 103.41875 135.97395Q103.05937 136.47395 102.62187 136.7552Q102.2 137.03645 101.60625 137.1927Q101.0125 137.33333 100.23125 137.33333L97.12187 137.33333ZM98.2625 136.3177L100.09062 136.3177Q100.95 136.3177 101.43437 136.16145Q101.91875 136.0052 102.2 135.70833Q102.60625 135.3177 102.825 134.6302Q103.05937 133.9427 103.05937 132.97395Q103.05937 131.6302 102.60625 130.91145Q102.16875 130.17708 101.54375 129.92708Q101.075 129.7552 100.075 129.7552L98.2625 129.7552L98.2625 136.3177Z" fill-rule="nonzero"/><path fill="#9e9e9e" d="M28.075 154.33333L28.075 152.27083L24.35625 152.27083L24.35625 151.30208L28.278126 145.73958L29.1375 145.73958L29.1375 151.30208L30.29375 151.30208L30.29375 152.27083L29.1375 152.27083L29.1375 154.33333L28.075 154.33333ZM28.075 151.30208L28.075 147.4427L25.3875 151.30208L28.075 151.30208ZM32.29375 154.33333L32.29375 153.1302L33.496876 153.1302L33.496876 154.33333L32.29375 154.33333ZM40.246876 153.3177L40.246876 154.33333L34.559376 154.33333Q34.559376 153.95833 34.684376 153.59895Q34.903126 153.02083 35.371876 152.45833Q35.85625 151.89583 36.7625 151.16145Q38.16875 150.0052 38.653126 149.33333Q39.153126 148.66145 39.153126 148.0677Q39.153126 147.4427 38.7 147.02083Q38.246876 146.58333 37.528126 146.58333Q36.7625 146.58333 36.309376 147.03645Q35.85625 147.48958 35.840626 148.30208L34.7625 148.1927Q34.871876 146.97395 35.590626 146.34895Q36.325 145.70833 37.559376 145.70833Q38.79375 145.70833 39.5125 146.39583Q40.23125 147.08333 40.23125 148.09895Q40.23125 148.61458 40.0125 149.11458Q39.809376 149.59895 39.309376 150.16145Q38.825 150.70833 37.7 151.66145Q36.746876 152.45833 36.465626 152.7552Q36.2 153.03645 36.028126 153.3177L40.246876 153.3177ZM41.903126 147.80208Q41.903126 146.8802 42.35625 146.23958Q42.825 145.59895 43.7 145.59895Q44.5125 145.59895 45.04375 146.17708Q45.575 146.7552 45.575 147.86458Q45.575 148.95833 45.028126 149.55208Q44.496876 150.1302 43.715626 150.1302Q42.934376 150.1302 42.41875 149.55208Q41.903126 148.97395 41.903126 147.80208ZM43.73125 146.3177Q43.340626 146.3177 43.075 146.66145Q42.825 147.0052 42.825 147.91145Q42.825 148.73958 43.075 149.08333Q43.340626 149.41145 43.73125 149.41145Q44.1375 149.41145 44.3875 149.0677Q44.653126 148.72395 44.653126 147.83333Q44.653126 146.98958 44.3875 146.66145Q44.121876 146.3177 43.73125 146.3177ZM43.73125 154.64583L48.434376 145.59895L49.29375 145.59895L44.60625 154.64583L43.73125 154.64583ZM47.45 152.3177Q47.45 151.39583 47.903126 150.7552Q48.371876 150.11458 49.2625 150.11458Q50.075 150.11458 50.60625 150.6927Q51.1375 151.2552 51.1375 152.3802Q51.1375 153.47395 50.590626 154.0677Q50.059376 154.64583 49.2625 154.64583Q48.496876 154.64583 47.965626 154.0677Q47.45 153.48958 47.45 152.3177ZM49.29375 150.83333Q48.8875 150.83333 48.621876 151.17708Q48.371876 151.52083 48.371876 152.42708Q48.371876 153.23958 48.6375 153.58333Q48.903126 153.92708 49.29375 153.92708Q49.684376 153.92708 49.95 153.58333Q50.215626 153.23958 50.215626 152.33333Q50.215626 151.5052 49.95 151.17708Q49.684376 150.83333 49.29375 150.83333Z" fill-rule="nonzero"/><path stroke="#757575" stroke-width="1.0" stroke-linecap="butt" d="M24.2 141.83333L187.26666 141.83333L299.0726 98.250534" fill-rule="nonzero"/><path fill="#9e9e9e" d="M301.0726 98.250534C301.0726 97.145966 300.1772 96.250534 299.0726 96.250534C297.96805 96.250534 297.0726 97.145966 297.0726 98.250534C297.0726 99.3551 297.96805 100.250534 299.0726 100.250534C300.1772 100.250534 301.0726 99.3551 301.0726 98.250534" fill-rule="nonzero"/><path fill="#1a1a1a" d="M24.746876 326.08472L25.809376 325.99097Q25.8875 326.64722 26.16875 327.05347Q26.45 327.45972 27.028126 327.72534Q27.621876 327.97534 28.35625 327.97534Q28.996876 327.97534 29.496876 327.78784Q29.996876 327.58472 30.23125 327.2566Q30.48125 326.91284 30.48125 326.52222Q30.48125 326.11597 30.246876 325.8191Q30.0125 325.5066 29.48125 325.30347Q29.121876 325.16284 27.934376 324.8816Q26.7625 324.60034 26.29375 324.35034Q25.66875 324.02222 25.371876 323.55347Q25.075 323.0691 25.075 322.47534Q25.075 321.83472 25.434376 321.27222Q25.809376 320.6941 26.5125 320.41284Q27.23125 320.11597 28.090626 320.11597Q29.04375 320.11597 29.778126 320.42847Q30.5125 320.72534 30.903126 321.33472Q31.29375 321.92847 31.325 322.67847L30.23125 322.7566Q30.1375 321.9441 29.621876 321.53784Q29.121876 321.11597 28.1375 321.11597Q27.10625 321.11597 26.6375 321.49097Q26.16875 321.86597 26.16875 322.39722Q26.16875 322.86597 26.496876 323.16284Q26.825 323.45972 28.2 323.77222Q29.590626 324.08472 30.10625 324.3191Q30.85625 324.67847 31.215626 325.20972Q31.575 325.72534 31.575 326.42847Q31.575 327.11597 31.184376 327.72534Q30.79375 328.3191 30.059376 328.66284Q29.325 328.99097 28.403126 328.99097Q27.23125 328.99097 26.434376 328.66284Q25.653126 328.3191 25.2 327.6316Q24.7625 326.9441 24.746876 326.08472ZM35.29375 327.91284L35.45 328.83472Q34.996876 328.92847 34.653126 328.92847Q34.075 328.92847 33.7625 328.7566Q33.45 328.5691 33.309376 328.27222Q33.184376 327.97534 33.184376 327.02222L33.184376 323.4441L32.41875 323.4441L32.41875 322.6316L33.184376 322.6316L33.184376 321.08472L34.23125 320.45972L34.23125 322.6316L35.29375 322.6316L35.29375 323.4441L34.23125 323.4441L34.23125 327.08472Q34.23125 327.53784 34.278126 327.66284Q34.340626 327.78784 34.465626 327.86597Q34.590626 327.9441 34.825 327.9441Q35.0125 327.9441 35.29375 327.91284ZM40.059376 328.08472Q39.465626 328.58472 38.91875 328.78784Q38.3875 328.99097 37.7625 328.99097Q36.73125 328.99097 36.184376 328.49097Q35.6375 327.99097 35.6375 327.20972Q35.6375 326.7566 35.840626 326.3816Q36.04375 325.99097 36.3875 325.77222Q36.73125 325.53784 37.153126 325.42847Q37.45 325.33472 38.090626 325.2566Q39.35625 325.11597 39.965626 324.89722Q39.965626 324.67847 39.965626 324.6316Q39.965626 323.97534 39.66875 323.70972Q39.2625 323.36597 38.465626 323.36597Q37.73125 323.36597 37.371876 323.6316Q37.0125 323.8816 36.840626 324.53784L35.809376 324.39722Q35.95 323.74097 36.278126 323.33472Q36.60625 322.92847 37.215626 322.70972Q37.825 322.49097 38.621876 322.49097Q39.41875 322.49097 39.91875 322.67847Q40.41875 322.86597 40.653126 323.14722Q40.8875 323.42847 40.98125 323.86597Q41.028126 324.1316 41.028126 324.83472L41.028126 326.24097Q41.028126 327.70972 41.090626 328.10034Q41.16875 328.49097 41.371876 328.85034L40.2625 328.85034Q40.10625 328.52222 40.059376 328.08472ZM39.965626 325.72534Q39.3875 325.95972 38.246876 326.1316Q37.590626 326.22534 37.325 326.35034Q37.059376 326.45972 36.903126 326.67847Q36.7625 326.89722 36.7625 327.17847Q36.7625 327.60034 37.075 327.8816Q37.403126 328.16284 38.0125 328.16284Q38.621876 328.16284 39.090626 327.89722Q39.575 327.6316 39.79375 327.16284Q39.965626 326.80347 39.965626 326.11597L39.965626 325.72534ZM45.29375 327.91284L45.45 328.83472Q44.996876 328.92847 44.653126 328.92847Q44.075 328.92847 43.7625 328.7566Q43.45 328.5691 43.309376 328.27222Q43.184376 327.97534 43.184376 327.02222L43.184376 323.4441L42.41875 323.4441L42.41875 322.6316L43.184376 322.6316L43.184376 321.08472L44.23125 320.45972L44.23125 322.6316L45.29375 322.6316L45.29375 323.4441L44.23125 323.4441L44.23125 327.08472Q44.23125 327.53784 44.278126 327.66284Q44.340626 327.78784 44.465626 327.86597Q44.590626 327.9441 44.825 327.9441Q45.0125 327.9441 45.29375 327.91284ZM50.246876 326.85034L51.340626 326.97534Q51.090626 327.92847 50.3875 328.45972Q49.684376 328.99097 48.60625 328.99097Q47.246876 328.99097 46.434376 328.14722Q45.6375 327.30347 45.6375 325.78784Q45.6375 324.22534 46.45 323.36597Q47.2625 322.49097 48.54375 322.49097Q49.79375 322.49097 50.575 323.33472Q51.371876 324.17847 51.371876 325.72534Q51.371876 325.8191 51.371876 326.0066L46.73125 326.0066Q46.79375 327.03784 47.309376 327.58472Q47.825 328.11597 48.60625 328.11597Q49.184376 328.11597 49.590626 327.8191Q50.0125 327.5066 50.246876 326.85034ZM46.79375 325.14722L50.2625 325.14722Q50.2 324.35034 49.871876 323.95972Q49.35625 323.35034 48.559376 323.35034Q47.825 323.35034 47.325 323.83472Q46.840626 324.3191 46.79375 325.14722ZM52.184376 328.85034L55.48125 320.2566L56.7 320.2566L60.215626 328.85034L58.934376 328.85034L57.91875 326.24097L54.340626 326.24097L53.3875 328.85034L52.184376 328.85034ZM54.66875 325.3191L57.575 325.3191L56.684376 322.9441Q56.2625 321.86597 56.075 321.16284Q55.903126 321.99097 55.60625 322.80347L54.66875 325.3191ZM64.05937 326.5691L65.09062 326.70972Q64.91875 327.77222 64.21562 328.3816Q63.5125 328.99097 62.496876 328.99097Q61.215626 328.99097 60.434376 328.16284Q59.66875 327.3191 59.66875 325.7566Q59.66875 324.7566 59.996876 324.0066Q60.340626 323.24097 61.0125 322.86597Q61.7 322.49097 62.5125 322.49097Q63.5125 322.49097 64.15312 323.0066Q64.80937 323.5066 64.99687 324.45972L63.965626 324.61597Q63.825 323.99097 63.45 323.67847Q63.075 323.35034 62.54375 323.35034Q61.746876 323.35034 61.246876 323.92847Q60.746876 324.49097 60.746876 325.72534Q60.746876 326.99097 61.23125 327.55347Q61.715626 328.11597 62.48125 328.11597Q63.10625 328.11597 63.5125 327.74097Q63.934376 327.36597 64.05937 326.5691ZM70.05937 326.5691L71.09062 326.70972Q70.91875 327.77222 70.21562 328.3816Q69.5125 328.99097 68.49687 328.99097Q67.21562 328.99097 66.43437 328.16284Q65.66875 327.3191 65.66875 325.7566Q65.66875 324.7566 65.99687 324.0066Q66.34062 323.24097 67.0125 322.86597Q67.7 322.49097 68.5125 322.49097Q69.5125 322.49097 70.15312 323.0066Q70.80937 323.5066 70.99687 324.45972L69.96562 324.61597Q69.825 323.99097 69.45 323.67847Q69.075 323.35034 68.54375 323.35034Q67.74687 323.35034 67.24687 323.92847Q66.74687 324.49097 66.74687 325.72534Q66.74687 326.99097 67.23125 327.55347Q67.71562 328.11597 68.48125 328.11597Q69.10625 328.11597 69.5125 327.74097Q69.93437 327.36597 70.05937 326.5691ZM71.60625 325.74097Q71.60625 324.0066 72.55937 323.17847Q73.35625 322.49097 74.5125 322.49097Q75.79375 322.49097 76.60625 323.33472Q77.43437 324.16284 77.43437 325.64722Q77.43437 326.85034 77.075 327.53784Q76.71562 328.22534 76.0125 328.61597Q75.325 328.99097 74.5125 328.99097Q73.21562 328.99097 72.40312 328.16284Q71.60625 327.3191 71.60625 325.74097ZM72.68437 325.74097Q72.68437 326.92847 73.2 327.52222Q73.73125 328.11597 74.5125 328.11597Q75.30937 328.11597 75.825 327.52222Q76.34062 326.92847 76.34062 325.70972Q76.34062 324.55347 75.80937 323.95972Q75.29375 323.36597 74.5125 323.36597Q73.73125 323.36597 73.2 323.95972Q72.68437 324.53784 72.68437 325.74097ZM83.075 328.85034L83.075 327.92847Q82.34062 328.99097 81.09062 328.99097Q80.54375 328.99097 80.05937 328.78784Q79.59062 328.5691 79.35625 328.2566Q79.12187 327.92847 79.02812 327.45972Q78.96562 327.16284 78.96562 326.47534L78.96562 322.6316L80.02812 322.6316L80.02812 326.08472Q80.02812 326.89722 80.09062 327.1941Q80.18437 327.60034 80.49687 327.85034Q80.825 328.08472 81.30937 328.08472Q81.77812 328.08472 82.18437 327.85034Q82.60625 327.60034 82.77812 327.17847Q82.96562 326.7566 82.96562 325.95972L82.96562 322.6316L84.0125 322.6316L84.0125 328.85034L83.075 328.85034ZM85.99687 328.85034L85.99687 322.6316L86.93437 322.6316L86.93437 323.5066Q87.62187 322.49097 88.91875 322.49097Q89.48125 322.49097 89.95 322.6941Q90.43437 322.89722 90.66875 323.22534Q90.90312 323.55347 90.99687 323.99097Q91.04375 324.28784 91.04375 325.02222L91.04375 328.85034L89.99687 328.85034L89.99687 325.0691Q89.99687 324.41284 89.87187 324.10034Q89.74687 323.78784 89.43437 323.60034Q89.12187 323.39722 88.7 323.39722Q88.02812 323.39722 87.52812 323.83472Q87.04375 324.2566 87.04375 325.4441L87.04375 328.85034L85.99687 328.85034ZM95.29375 327.91284L95.45 328.83472Q94.99687 328.92847 94.65312 328.92847Q94.075 328.92847 93.7625 328.7566Q93.45 328.5691 93.30937 328.27222Q93.18437 327.97534 93.18437 327.02222L93.18437 323.4441L92.41875 323.4441L92.41875 322.6316L93.18437 322.6316L93.18437 321.08472L94.23125 320.45972L94.23125 322.6316L95.29375 322.6316L95.29375 323.4441L94.23125 323.4441L94.23125 327.08472Q94.23125 327.53784 94.27812 327.66284Q94.34062 327.78784 94.46562 327.86597Q94.59062 327.9441 94.825 327.9441Q95.0125 327.9441 95.29375 327.91284ZM96.075 328.85034L96.075 320.2566L97.21562 320.2566L97.21562 324.52222L101.48125 320.2566L103.02812 320.2566L99.41875 323.74097L103.18437 328.85034L101.68437 328.85034L98.62187 324.5066L97.21562 325.86597L97.21562 328.85034L96.075 328.85034ZM108.24687 326.85034L109.34062 326.97534Q109.09062 327.92847 108.3875 328.45972Q107.68437 328.99097 106.60625 328.99097Q105.24687 328.99097 104.43437 328.14722Q103.6375 327.30347 103.6375 325.78784Q103.6375 324.22534 104.45 323.36597Q105.2625 322.49097 106.54375 322.49097Q107.79375 322.49097 108.575 323.33472Q109.37187 324.17847 109.37187 325.72534Q109.37187 325.8191 109.37187 326.0066L104.73125 326.0066Q104.79375 327.03784 105.30937 327.58472Q105.825 328.11597 106.60625 328.11597Q107.18437 328.11597 107.59062 327.8191Q108.0125 327.5066 108.24687 326.85034ZM104.79375 325.14722L108.2625 325.14722Q108.2 324.35034 107.87187 323.95972Q107.35625 323.35034 106.55937 323.35034Q105.825 323.35034 105.325 323.83472Q104.84062 324.3191 104.79375 325.14722ZM110.95 331.24097L110.825 330.2566Q111.16875 330.35034 111.43437 330.35034Q111.77812 330.35034 111.98125 330.22534Q112.2 330.11597 112.34062 329.91284Q112.43437 329.74097 112.66875 329.11597Q112.68437 329.03784 112.7625 328.86597L110.3875 322.6316L111.52812 322.6316L112.825 326.22534Q113.075 326.91284 113.27812 327.67847Q113.46562 326.9441 113.71562 326.2566L115.04375 322.6316L116.09062 322.6316L113.73125 328.95972Q113.34062 329.97534 113.1375 330.36597Q112.85625 330.89722 112.48125 331.1316Q112.12187 331.3816 111.62187 331.3816Q111.325 331.3816 110.95 331.24097Z" fill-rule="nonzero"/><path fill="#9e9e9e" d="M28.075 345.85034L28.075 343.78784L24.35625 343.78784L24.35625 342.8191L28.278126 337.2566L29.1375 337.2566L29.1375 342.8191L30.29375 342.8191L30.29375 343.78784L29.1375 343.78784L29.1375 345.85034L28.075 345.85034ZM28.075 342.8191L28.075 338.95972L25.3875 342.8191L28.075 342.8191ZM35.66875 345.85034L34.621876 345.85034L34.621876 339.1316Q34.23125 339.49097 33.60625 339.86597Q32.996876 340.22534 32.5125 340.39722L32.5125 339.3816Q33.3875 338.95972 34.04375 338.3816Q34.715626 337.78784 34.996876 337.22534L35.66875 337.22534L35.66875 345.85034ZM39.29375 345.85034L39.29375 344.64722L40.496876 344.64722L40.496876 345.85034L39.29375 345.85034ZM41.85625 343.86597L42.871876 343.77222Q42.996876 344.49097 43.35625 344.8191Q43.73125 345.1316 44.29375 345.1316Q44.778126 345.1316 45.1375 344.91284Q45.5125 344.67847 45.746876 344.3191Q45.98125 343.9441 46.1375 343.3191Q46.29375 342.67847 46.29375 342.02222Q46.29375 341.9441 46.29375 341.80347Q45.98125 342.30347 45.434376 342.6316Q44.8875 342.9441 44.246876 342.9441Q43.16875 342.9441 42.434376 342.17847Q41.7 341.39722 41.7 340.1316Q41.7 338.8191 42.465626 338.02222Q43.246876 337.22534 44.403126 337.22534Q45.23125 337.22534 45.91875 337.67847Q46.621876 338.1316 46.98125 338.97534Q47.340626 339.80347 47.340626 341.3816Q47.340626 343.02222 46.98125 344.0066Q46.6375 344.97534 45.91875 345.49097Q45.215626 345.99097 44.278126 345.99097Q43.2625 345.99097 42.621876 345.4441Q41.98125 344.8816 41.85625 343.86597ZM46.16875 340.0691Q46.16875 339.16284 45.684376 338.6316Q45.215626 338.10034 44.528126 338.10034Q43.825 338.10034 43.29375 338.67847Q42.778126 339.24097 42.778126 340.16284Q42.778126 340.97534 43.278126 341.49097Q43.778126 342.0066 44.496876 342.0066Q45.23125 342.0066 45.7 341.49097Q46.16875 340.97534 46.16875 340.0691ZM48.903126 339.3191Q48.903126 338.39722 49.35625 337.7566Q49.825 337.11597 50.7 337.11597Q51.5125 337.11597 52.04375 337.6941Q52.575 338.27222 52.575 339.3816Q52.575 340.47534 52.028126 341.0691Q51.496876 341.64722 50.715626 341.64722Q49.934376 341.64722 49.41875 341.0691Q48.903126 340.49097 48.903126 339.3191ZM50.73125 337.83472Q50.340626 337.83472 50.075 338.17847Q49.825 338.52222 49.825 339.42847Q49.825 340.2566 50.075 340.60034Q50.340626 340.92847 50.73125 340.92847Q51.1375 340.92847 51.3875 340.58472Q51.653126 340.24097 51.653126 339.35034Q51.653126 338.5066 51.3875 338.17847Q51.121876 337.83472 50.73125 337.83472ZM50.73125 346.16284L55.434376 337.11597L56.29375 337.11597L51.60625 346.16284L50.73125 346.16284ZM54.45 343.83472Q54.45 342.91284 54.903126 342.27222Q55.371876 341.6316 56.2625 341.6316Q57.075 341.6316 57.60625 342.20972Q58.1375 342.77222 58.1375 343.89722Q58.1375 344.99097 57.590626 345.58472Q57.059376 346.16284 56.2625 346.16284Q55.496876 346.16284 54.965626 345.58472Q54.45 345.0066 54.45 343.83472ZM56.29375 342.35034Q55.8875 342.35034 55.621876 342.6941Q55.371876 343.03784 55.371876 343.9441Q55.371876 344.7566 55.6375 345.10034Q55.903126 345.4441 56.29375 345.4441Q56.684376 345.4441 56.95 345.10034Q57.215626 344.7566 57.215626 343.85034Q57.215626 343.02222 56.95 342.6941Q56.684376 342.35034 56.29375 342.35034Z" fill-rule="nonzero"/><path stroke="#757575" stroke-width="1.0" stroke-linecap="butt" d="M24.2 333.35034L187.26666 333.35034L217.20412 333.35034" fill-rule="nonzero"/><path fill="#9e9e9e" d="M219.20412 333.35034C219.20412 332.24576 218.30869 331.35034 217.20412 331.35034C216.09955 331.35034 215.20412 332.24576 215.20412 333.35034C215.20412 334.45493 216.09955 335.35034 217.20412 335.35034C218.30869 335.35034 219.20412 334.45493 219.20412 333.35034" fill-rule="nonzero"/><path fill="#1a1a1a" d="M701.8625 241.96239L702.9875 242.25926Q702.6281 243.64989 701.70624 244.38426Q700.78436 245.11864 699.4406 245.11864Q698.05 245.11864 697.175 244.55614Q696.3 243.99364 695.84686 242.93114Q695.39374 241.85301 695.39374 240.61864Q695.39374 239.27489 695.90936 238.27489Q696.425 237.27489 697.3625 236.75926Q698.3156 236.24364 699.45624 236.24364Q700.7375 236.24364 701.6125 236.89989Q702.5031 237.55614 702.84686 238.74364L701.72186 239.00926Q701.425 238.07176 700.84686 237.64989Q700.28436 237.21239 699.425 237.21239Q698.4406 237.21239 697.76874 237.69676Q697.1125 238.16551 696.83124 238.96239Q696.5656 239.75926 696.5656 240.61864Q696.5656 241.71239 696.8781 242.52489Q697.20624 243.33739 697.8781 243.74364Q698.55 244.14989 699.34686 244.14989Q700.3 244.14989 700.95624 243.60301Q701.6281 243.05614 701.8625 241.96239ZM704.59686 244.97801L704.59686 236.38426L705.64374 236.38426L705.64374 239.46239Q706.3781 238.61864 707.5031 238.61864Q708.20624 238.61864 708.70624 238.89989Q709.22186 239.16551 709.4406 239.64989Q709.65936 240.11864 709.65936 241.04051L709.65936 244.97801L708.6125 244.97801L708.6125 241.04051Q708.6125 240.24364 708.26874 239.88426Q707.925 239.52489 707.3 239.52489Q706.83124 239.52489 706.40936 239.77489Q706.0031 240.00926 705.8156 240.43114Q705.64374 240.83739 705.64374 241.57176L705.64374 244.97801L704.59686 244.97801ZM715.65936 244.21239Q715.0656 244.71239 714.51874 244.91551Q713.9875 245.11864 713.3625 245.11864Q712.33124 245.11864 711.78436 244.61864Q711.2375 244.11864 711.2375 243.33739Q711.2375 242.88426 711.4406 242.50926Q711.64374 242.11864 711.9875 241.89989Q712.33124 241.66551 712.7531 241.55614Q713.05 241.46239 713.6906 241.38426Q714.95624 241.24364 715.5656 241.02489Q715.5656 240.80614 715.5656 240.75926Q715.5656 240.10301 715.26874 239.83739Q714.8625 239.49364 714.0656 239.49364Q713.33124 239.49364 712.97186 239.75926Q712.6125 240.00926 712.4406 240.66551L711.40936 240.52489Q711.55 239.86864 711.8781 239.46239Q712.20624 239.05614 712.8156 238.83739Q713.425 238.61864 714.22186 238.61864Q715.01874 238.61864 715.51874 238.80614Q716.01874 238.99364 716.2531 239.27489Q716.4875 239.55614 716.58124 239.99364Q716.6281 240.25926 716.6281 240.96239L716.6281 242.36864Q716.6281 243.83739 716.6906 244.22801Q716.76874 244.61864 716.97186 244.97801L715.8625 244.97801Q715.70624 244.64989 715.65936 244.21239ZM715.5656 241.85301Q714.9875 242.08739 713.84686 242.25926Q713.1906 242.35301 712.925 242.47801Q712.65936 242.58739 712.5031 242.80614Q712.3625 243.02489 712.3625 243.30614Q712.3625 243.72801 712.675 244.00926Q713.0031 244.29051 713.6125 244.29051Q714.22186 244.29051 714.6906 244.02489Q715.175 243.75926 715.39374 243.29051Q715.5656 242.93114 715.5656 242.24364L715.5656 241.85301ZM718.59686 237.60301L718.59686 236.38426L719.65936 236.38426L719.65936 237.60301L718.59686 237.60301ZM718.59686 244.97801L718.59686 238.75926L719.65936 238.75926L719.65936 244.97801L718.59686 244.97801ZM721.59686 244.97801L721.59686 238.75926L722.53436 238.75926L722.53436 239.63426Q723.22186 238.61864 724.51874 238.61864Q725.08124 238.61864 725.55 238.82176Q726.03436 239.02489 726.26874 239.35301Q726.5031 239.68114 726.59686 240.11864Q726.64374 240.41551 726.64374 241.14989L726.64374 244.97801L725.59686 244.97801L725.59686 241.19676Q725.59686 240.54051 725.47186 240.22801Q725.34686 239.91551 725.03436 239.72801Q724.72186 239.52489 724.3 239.52489Q723.6281 239.52489 723.1281 239.96239Q722.64374 240.38426 722.64374 241.57176L722.64374 244.97801L721.59686 244.97801ZM728.76874 244.97801L728.76874 236.38426L729.89374 236.38426L729.89374 239.91551L734.3625 239.91551L734.3625 236.38426L735.5031 236.38426L735.5031 244.97801L734.3625 244.97801L734.3625 240.93114L729.89374 240.93114L729.89374 244.97801L728.76874 244.97801ZM741.84686 242.97801L742.9406 243.10301Q742.6906 244.05614 741.9875 244.58739Q741.28436 245.11864 740.20624 245.11864Q738.84686 245.11864 738.03436 244.27489Q737.2375 243.43114 737.2375 241.91551Q737.2375 240.35301 738.05 239.49364Q738.8625 238.61864 740.14374 238.61864Q741.39374 238.61864 742.175 239.46239Q742.97186 240.30614 742.97186 241.85301Q742.97186 241.94676 742.97186 242.13426L738.33124 242.13426Q738.39374 243.16551 738.90936 243.71239Q739.425 244.24364 740.20624 244.24364Q740.78436 244.24364 741.1906 243.94676Q741.6125 243.63426 741.84686 242.97801ZM738.39374 241.27489L741.8625 241.27489Q741.8 240.47801 741.47186 240.08739Q740.95624 239.47801 740.15936 239.47801Q739.425 239.47801 738.925 239.96239Q738.4406 240.44676 738.39374 241.27489ZM748.65936 244.21239Q748.0656 244.71239 747.51874 244.91551Q746.9875 245.11864 746.3625 245.11864Q745.33124 245.11864 744.78436 244.61864Q744.2375 244.11864 744.2375 243.33739Q744.2375 242.88426 744.4406 242.50926Q744.64374 242.11864 744.9875 241.89989Q745.33124 241.66551 745.7531 241.55614Q746.05 241.46239 746.6906 241.38426Q747.95624 241.24364 748.5656 241.02489Q748.5656 240.80614 748.5656 240.75926Q748.5656 240.10301 748.26874 239.83739Q747.8625 239.49364 747.0656 239.49364Q746.33124 239.49364 745.97186 239.75926Q745.6125 240.00926 745.4406 240.66551L744.40936 240.52489Q744.55 239.86864 744.8781 239.46239Q745.20624 239.05614 745.8156 238.83739Q746.425 238.61864 747.22186 238.61864Q748.01874 238.61864 748.51874 238.80614Q749.01874 238.99364 749.2531 239.27489Q749.4875 239.55614 749.58124 239.99364Q749.6281 240.25926 749.6281 240.96239L749.6281 242.36864Q749.6281 243.83739 749.6906 244.22801Q749.76874 244.61864 749.97186 244.97801L748.8625 244.97801Q748.70624 244.64989 748.65936 244.21239ZM748.5656 241.85301Q747.9875 242.08739 746.84686 242.25926Q746.1906 242.35301 745.925 242.47801Q745.65936 242.58739 745.5031 242.80614Q745.3625 243.02489 745.3625 243.30614Q745.3625 243.72801 745.675 244.00926Q746.0031 244.29051 746.6125 244.29051Q747.22186 244.29051 747.6906 244.02489Q748.175 243.75926 748.39374 243.29051Q748.5656 242.93114 748.5656 242.24364L748.5656 241.85301ZM755.6281 244.97801L755.6281 244.19676Q755.03436 245.11864 753.89374 245.11864Q753.14374 245.11864 752.51874 244.71239Q751.89374 244.29051 751.55 243.55614Q751.20624 242.82176 751.20624 241.86864Q751.20624 240.94676 751.51874 240.18114Q751.83124 239.41551 752.45624 239.02489Q753.08124 238.61864 753.84686 238.61864Q754.40936 238.61864 754.84686 238.85301Q755.28436 239.08739 755.5656 239.46239L755.5656 236.38426L756.6125 236.38426L756.6125 244.97801L755.6281 244.97801ZM752.3 241.86864Q752.3 243.07176 752.8 243.66551Q753.3 244.24364 753.9875 244.24364Q754.675 244.24364 755.15936 243.68114Q755.64374 243.11864 755.64374 241.96239Q755.64374 240.68114 755.14374 240.08739Q754.65936 239.49364 753.9406 239.49364Q753.2375 239.49364 752.76874 240.07176Q752.3 240.63426 752.3 241.86864Z" fill-rule="nonzero"/><path fill="#9e9e9e" d="M726.675 261.978L726.675 259.9155L722.95624 259.9155L722.95624 258.94675L726.8781 253.38425L727.7375 253.38425L727.7375 258.94675L728.89374 258.94675L728.89374 259.9155L727.7375 259.9155L727.7375 261.978L726.675 261.978ZM726.675 258.94675L726.675 255.08737L723.9875 258.94675L726.675 258.94675ZM730.3625 254.50925L730.3625 253.49362L735.925 253.49362L735.925 254.32175Q735.1125 255.19675 734.3 256.64987Q733.5031 258.08737 733.0656 259.61862Q732.7375 260.69675 732.65936 261.978L731.5656 261.978Q731.58124 260.96237 731.95624 259.52487Q732.34686 258.08737 733.05 256.75925Q733.76874 255.43112 734.58124 254.50925L730.3625 254.50925ZM737.89374 261.978L737.89374 260.77487L739.09686 260.77487L739.09686 261.978L737.89374 261.978ZM740.45624 259.99362L741.47186 259.89987Q741.59686 260.61862 741.95624 260.94675Q742.33124 261.25925 742.89374 261.25925Q743.3781 261.25925 743.7375 261.0405Q744.1125 260.80612 744.34686 260.44675Q744.58124 260.07175 744.7375 259.44675Q744.89374 258.80612 744.89374 258.14987Q744.89374 258.07175 744.89374 257.93112Q744.58124 258.43112 744.03436 258.75925Q743.4875 259.07175 742.84686 259.07175Q741.76874 259.07175 741.03436 258.30612Q740.3 257.52487 740.3 256.25925Q740.3 254.94675 741.0656 254.14987Q741.84686 253.353 743.0031 253.353Q743.83124 253.353 744.51874 253.80612Q745.22186 254.25925 745.58124 255.103Q745.9406 255.93112 745.9406 257.50925Q745.9406 259.14987 745.58124 260.13425Q745.2375 261.103 744.51874 261.61862Q743.8156 262.11862 742.8781 262.11862Q741.8625 262.11862 741.22186 261.57175Q740.58124 261.00925 740.45624 259.99362ZM744.76874 256.19675Q744.76874 255.2905 744.28436 254.75925Q743.8156 254.228 743.1281 254.228Q742.425 254.228 741.89374 254.80612Q741.3781 255.36862 741.3781 256.2905Q741.3781 257.103 741.8781 257.61862Q742.3781 258.13425 743.09686 258.13425Q743.83124 258.13425 744.3 257.61862Q744.76874 257.103 744.76874 256.19675ZM747.5031 255.44675Q747.5031 254.52487 747.95624 253.88425Q748.425 253.24362 749.3 253.24362Q750.1125 253.24362 750.64374 253.82175Q751.175 254.39987 751.175 255.50925Q751.175 256.603 750.6281 257.19675Q750.09686 257.77487 749.3156 257.77487Q748.53436 257.77487 748.01874 257.19675Q747.5031 256.61862 747.5031 255.44675ZM749.33124 253.96237Q748.9406 253.96237 748.675 254.30612Q748.425 254.64987 748.425 255.55612Q748.425 256.38425 748.675 256.728Q748.9406 257.05612 749.33124 257.05612Q749.7375 257.05612 749.9875 256.71237Q750.2531 256.36862 750.2531 255.478Q750.2531 254.63425 749.9875 254.30612Q749.72186 253.96237 749.33124 253.96237ZM749.33124 262.2905L754.03436 253.24362L754.89374 253.24362L750.20624 262.2905L749.33124 262.2905ZM753.05 259.96237Q753.05 259.0405 753.5031 258.39987Q753.97186 257.75925 754.8625 257.75925Q755.675 257.75925 756.20624 258.33737Q756.7375 258.89987 756.7375 260.02487Q756.7375 261.11862 756.1906 261.71237Q755.65936 262.2905 754.8625 262.2905Q754.09686 262.2905 753.5656 261.71237Q753.05 261.13425 753.05 259.96237ZM754.89374 258.478Q754.4875 258.478 754.22186 258.82175Q753.97186 259.1655 753.97186 260.07175Q753.97186 260.88425 754.2375 261.228Q754.5031 261.57175 754.89374 261.57175Q755.28436 261.57175 755.55 261.228Q755.8156 260.88425 755.8156 259.978Q755.8156 259.14987 755.55 258.82175Q755.28436 258.478 754.89374 258.478Z" fill-rule="nonzero"/><path stroke="#757575" stroke-width="1.0" stroke-linecap="butt" d="M757.8 249.47801L594.73334 249.47801L578.4244 249.47801" fill-rule="nonzero"/><path fill="#9e9e9e" d="M580.4244 249.47801C580.4244 248.37344 579.52893 247.47801 578.4244 247.47801C577.3198 247.47801 576.4244 248.37344 576.4244 249.47801C576.4244 250.58258 577.3198 251.47801 578.4244 251.47801C579.52893 251.47801 580.4244 250.58258 580.4244 249.47801" fill-rule="nonzero"/><path fill="#757575" d="M25.66875 43.2L25.66875 28.8875L27.559376 28.8875L27.559376 41.5125L34.60625 41.5125L34.60625 43.2L25.66875 43.2ZM35.871876 38.0125Q35.871876 35.1375 37.465626 33.746876Q38.809376 32.590626 40.73125 32.590626Q42.871876 32.590626 44.215626 33.996876Q45.575 35.403126 45.575 37.871876Q45.575 39.871876 44.98125 41.028126Q44.3875 42.16875 43.23125 42.809376Q42.090626 43.434376 40.73125 43.434376Q38.54375 43.434376 37.2 42.04375Q35.871876 40.6375 35.871876 38.0125ZM37.66875 38.0125Q37.66875 40.0125 38.528126 40.996876Q39.403126 41.98125 40.73125 41.98125Q42.04375 41.98125 42.903126 40.996876Q43.778126 39.996876 43.778126 37.95Q43.778126 36.028126 42.903126 35.04375Q42.028126 34.04375 40.73125 34.04375Q39.403126 34.04375 38.528126 35.04375Q37.66875 36.028126 37.66875 38.0125ZM51.35625 41.621876L51.60625 43.184376Q50.871876 43.340626 50.278126 43.340626Q49.325 43.340626 48.79375 43.04375Q48.278126 42.73125 48.059376 42.246876Q47.840626 41.746876 47.840626 40.16875L47.840626 34.2L46.559376 34.2L46.559376 32.825L47.840626 32.825L47.840626 30.2625L49.590626 29.2L49.590626 32.825L51.35625 32.825L51.35625 34.2L49.590626 34.2L49.590626 40.2625Q49.590626 41.0125 49.684376 41.23125Q49.778126 41.434376 49.98125 41.575Q50.2 41.7 50.590626 41.7Q50.871876 41.7 51.35625 41.621876ZM60.309376 43.2L60.309376 41.66875Q59.10625 43.434376 57.028126 43.434376Q56.10625 43.434376 55.309376 43.090626Q54.5125 42.73125 54.121876 42.2Q53.746876 41.66875 53.590626 40.8875Q53.48125 40.371876 53.48125 39.246876L53.48125 32.825L55.23125 32.825L55.23125 38.575Q55.23125 39.95 55.340626 40.434376Q55.5125 41.121876 56.04375 41.528126Q56.590626 41.91875 57.371876 41.91875Q58.16875 41.91875 58.85625 41.5125Q59.559376 41.10625 59.840626 40.41875Q60.1375 39.715626 60.1375 38.3875L60.1375 32.825L61.8875 32.825L61.8875 43.2L60.309376 43.2ZM62.809376 40.10625L64.55937 39.825Q64.7 40.871876 65.37187 41.434376Q66.04375 41.98125 67.24687 41.98125Q68.45 41.98125 69.02812 41.496876Q69.62187 40.996876 69.62187 40.340626Q69.62187 39.746876 69.10625 39.403126Q68.74687 39.16875 67.30937 38.809376Q65.37187 38.309376 64.62187 37.965626Q63.8875 37.60625 63.496876 36.98125Q63.10625 36.340626 63.10625 35.575Q63.10625 34.8875 63.41875 34.29375Q63.746876 33.7 64.29375 33.309376Q64.7 33.0125 65.40312 32.809376Q66.12187 32.590626 66.93437 32.590626Q68.15312 32.590626 69.075 32.95Q69.99687 33.29375 70.43437 33.903126Q70.87187 34.496876 71.04375 35.496876L69.325 35.73125Q69.2 34.934376 68.6375 34.496876Q68.075 34.04375 67.05937 34.04375Q65.84062 34.04375 65.325 34.45Q64.80937 34.840626 64.80937 35.371876Q64.80937 35.715626 65.02812 35.996876Q65.23125 36.278126 65.7 36.465626Q65.96562 36.559376 67.24687 36.903126Q69.12187 37.403126 69.85625 37.73125Q70.59062 38.04375 71.0125 38.653126Q71.43437 39.246876 71.43437 40.153126Q71.43437 41.028126 70.91875 41.809376Q70.40312 42.590626 69.43437 43.0125Q68.46562 43.434376 67.24687 43.434376Q65.23125 43.434376 64.16875 42.590626Q63.10625 41.746876 62.809376 40.10625ZM78.87187 38.0125Q78.87187 35.1375 80.46562 33.746876Q81.80937 32.590626 83.73125 32.590626Q85.87187 32.590626 87.21562 33.996876Q88.575 35.403126 88.575 37.871876Q88.575 39.871876 87.98125 41.028126Q87.3875 42.16875 86.23125 42.809376Q85.09062 43.434376 83.73125 43.434376Q81.54375 43.434376 80.2 42.04375Q78.87187 40.6375 78.87187 38.0125ZM80.66875 38.0125Q80.66875 40.0125 81.52812 40.996876Q82.40312 41.98125 83.73125 41.98125Q85.04375 41.98125 85.90312 40.996876Q86.77812 39.996876 86.77812 37.95Q86.77812 36.028126 85.90312 35.04375Q85.02812 34.04375 83.73125 34.04375Q82.40312 34.04375 81.52812 35.04375Q80.66875 36.028126 80.66875 38.0125ZM90.5125 47.16875L90.5125 32.825L92.12187 32.825L92.12187 34.16875Q92.68437 33.3875 93.3875 32.996876Q94.10625 32.590626 95.12187 32.590626Q96.45 32.590626 97.46562 33.278126Q98.48125 33.965626 98.99687 35.215626Q99.52812 36.45 99.52812 37.934376Q99.52812 39.528126 98.95 40.809376Q98.3875 42.075 97.29375 42.7625Q96.2 43.434376 94.99687 43.434376Q94.12187 43.434376 93.41875 43.059376Q92.73125 42.684376 92.27812 42.121876L92.27812 47.16875L90.5125 47.16875ZM92.10625 38.075Q92.10625 40.075 92.91875 41.028126Q93.73125 41.98125 94.8875 41.98125Q96.05937 41.98125 96.8875 40.996876Q97.73125 40.0125 97.73125 37.91875Q97.73125 35.95 96.90312 34.965626Q96.09062 33.965626 94.96562 33.965626Q93.84062 33.965626 92.96562 35.028126Q92.10625 36.075 92.10625 38.075ZM108.62187 39.85625L110.43437 40.090626Q110.0125 41.66875 108.84062 42.559376Q107.68437 43.434376 105.87187 43.434376Q103.60625 43.434376 102.2625 42.04375Q100.93437 40.6375 100.93437 38.10625Q100.93437 35.48125 102.27812 34.04375Q103.62187 32.590626 105.77812 32.590626Q107.85625 32.590626 109.16875 34.0125Q110.49687 35.41875 110.49687 37.996876Q110.49687 38.153126 110.48125 38.465626L102.74687 38.465626Q102.84062 40.16875 103.71562 41.075Q104.59062 41.98125 105.8875 41.98125Q106.85625 41.98125 107.52812 41.48125Q108.21562 40.965626 108.62187 39.85625ZM102.84062 37.0125L108.6375 37.0125Q108.52812 35.715626 107.98125 35.059376Q107.1375 34.04375 105.79375 34.04375Q104.59062 34.04375 103.7625 34.85625Q102.93437 35.653126 102.84062 37.0125ZM112.49687 43.2L112.49687 32.825L114.075 32.825L114.075 34.403126Q114.68437 33.29375 115.2 32.95Q115.71562 32.590626 116.325 32.590626Q117.21562 32.590626 118.1375 33.153126L117.52812 34.79375Q116.8875 34.403126 116.24687 34.403126Q115.66875 34.403126 115.2 34.7625Q114.74687 35.10625 114.54375 35.715626Q114.2625 36.653126 114.2625 37.7625L114.2625 43.2L112.49687 43.2ZM126.29375 41.91875Q125.30937 42.746876 124.40312 43.090626Q123.49687 43.434376 122.46562 43.434376Q120.7625 43.434376 119.84062 42.60625Q118.91875 41.7625 118.91875 40.465626Q118.91875 39.7 119.2625 39.075Q119.62187 38.45 120.18437 38.075Q120.74687 37.684376 121.45 37.48125Q121.96562 37.35625 123.0125 37.215626Q125.1375 36.965626 126.1375 36.621876Q126.15312 36.2625 126.15312 36.153126Q126.15312 35.090626 125.65312 34.6375Q124.98125 34.04375 123.65312 34.04375Q122.40312 34.04375 121.80937 34.48125Q121.23125 34.91875 120.95 36.028126L119.23125 35.79375Q119.46562 34.684376 119.99687 34.0125Q120.52812 33.325 121.54375 32.965626Q122.55937 32.590626 123.90312 32.590626Q125.23125 32.590626 126.05937 32.903126Q126.8875 33.215626 127.27812 33.7Q127.66875 34.16875 127.825 34.8875Q127.91875 35.340626 127.91875 36.5125L127.91875 38.85625Q127.91875 41.309376 128.02812 41.965626Q128.1375 42.60625 128.48125 43.2L126.6375 43.2Q126.37187 42.653126 126.29375 41.91875ZM126.1375 37.996876Q125.18437 38.3875 123.2625 38.653126Q122.18437 38.809376 121.73125 39.0125Q121.29375 39.2 121.04375 39.575Q120.79375 39.95 120.79375 40.41875Q120.79375 41.121876 121.325 41.590626Q121.85625 42.059376 122.8875 42.059376Q123.90312 42.059376 124.68437 41.621876Q125.48125 41.16875 125.85625 40.403126Q126.1375 39.79375 126.1375 38.6375L126.1375 37.996876ZM134.35625 41.621876L134.60625 43.184376Q133.87187 43.340626 133.27812 43.340626Q132.325 43.340626 131.79375 43.04375Q131.27812 42.73125 131.05937 42.246876Q130.84062 41.746876 130.84062 40.16875L130.84062 34.2L129.55937 34.2L129.55937 32.825L130.84062 32.825L130.84062 30.2625L132.59062 29.2L132.59062 32.825L134.35625 32.825L134.35625 34.2L132.59062 34.2L132.59062 40.2625Q132.59062 41.0125 132.68437 41.23125Q132.77812 41.434376 132.98125 41.575Q133.2 41.7 133.59062 41.7Q133.87187 41.7 134.35625 41.621876ZM136.52812 30.903126L136.52812 28.8875L138.29375 28.8875L138.29375 30.903126L136.52812 30.903126ZM136.52812 43.2L136.52812 32.825L138.29375 32.825L138.29375 43.2L136.52812 43.2ZM139.87187 38.0125Q139.87187 35.1375 141.46562 33.746876Q142.80937 32.590626 144.73125 32.590626Q146.87187 32.590626 148.21562 33.996876Q149.575 35.403126 149.575 37.871876Q149.575 39.871876 148.98125 41.028126Q148.3875 42.16875 147.23125 42.809376Q146.09062 43.434376 144.73125 43.434376Q142.54375 43.434376 141.2 42.04375Q139.87187 40.6375 139.87187 38.0125ZM141.66875 38.0125Q141.66875 40.0125 142.52812 40.996876Q143.40312 41.98125 144.73125 41.98125Q146.04375 41.98125 146.90312 40.996876Q147.77812 39.996876 147.77812 37.95Q147.77812 36.028126 146.90312 35.04375Q146.02812 34.04375 144.73125 34.04375Q143.40312 34.04375 142.52812 35.04375Q141.66875 36.028126 141.66875 38.0125ZM151.5125 43.2L151.5125 32.825L153.10625 32.825L153.10625 34.309376Q154.24687 32.590626 156.40312 32.590626Q157.34062 32.590626 158.12187 32.934376Q158.91875 33.2625 159.30937 33.809376Q159.7 34.35625 159.85625 35.10625Q159.95 35.60625 159.95 36.825L159.95 43.2L158.18437 43.2L158.18437 36.8875Q158.18437 35.809376 157.98125 35.278126Q157.77812 34.746876 157.24687 34.434376Q156.73125 34.121876 156.02812 34.121876Q154.90312 34.121876 154.09062 34.840626Q153.27812 35.54375 153.27812 37.528126L153.27812 43.2L151.5125 43.2ZM160.80937 40.10625L162.55937 39.825Q162.7 40.871876 163.37187 41.434376Q164.04375 41.98125 165.24687 41.98125Q166.45 41.98125 167.02812 41.496876Q167.62187 40.996876 167.62187 40.340626Q167.62187 39.746876 167.10625 39.403126Q166.74687 39.16875 165.30937 38.809376Q163.37187 38.309376 162.62187 37.965626Q161.8875 37.60625 161.49687 36.98125Q161.10625 36.340626 161.10625 35.575Q161.10625 34.8875 161.41875 34.29375Q161.74687 33.7 162.29375 33.309376Q162.7 33.0125 163.40312 32.809376Q164.12187 32.590626 164.93437 32.590626Q166.15312 32.590626 167.075 32.95Q167.99687 33.29375 168.43437 33.903126Q168.87187 34.496876 169.04375 35.496876L167.325 35.73125Q167.2 34.934376 166.6375 34.496876Q166.075 34.04375 165.05937 34.04375Q163.84062 34.04375 163.325 34.45Q162.80937 34.840626 162.80937 35.371876Q162.80937 35.715626 163.02812 35.996876Q163.23125 36.278126 163.7 36.465626Q163.96562 36.559376 165.24687 36.903126Q167.12187 37.403126 167.85625 37.73125Q168.59062 38.04375 169.0125 38.653126Q169.43437 39.246876 169.43437 40.153126Q169.43437 41.028126 168.91875 41.809376Q168.40312 42.590626 167.43437 43.0125Q166.46562 43.434376 165.24687 43.434376Q163.23125 43.434376 162.16875 42.590626Q161.10625 41.746876 160.80937 40.10625ZM176.87187 38.0125Q176.87187 35.1375 178.46562 33.746876Q179.80937 32.590626 181.73125 32.590626Q183.87187 32.590626 185.21562 33.996876Q186.575 35.403126 186.575 37.871876Q186.575 39.871876 185.98125 41.028126Q185.3875 42.16875 184.23125 42.809376Q183.09062 43.434376 181.73125 43.434376Q179.54375 43.434376 178.2 42.04375Q176.87187 40.6375 176.87187 38.0125ZM178.66875 38.0125Q178.66875 40.0125 179.52812 40.996876Q180.40312 41.98125 181.73125 41.98125Q183.04375 41.98125 183.90312 40.996876Q184.77812 39.996876 184.77812 37.95Q184.77812 36.028126 183.90312 35.04375Q183.02812 34.04375 181.73125 34.04375Q180.40312 34.04375 179.52812 35.04375Q178.66875 36.028126 178.66875 38.0125ZM188.5125 43.2L188.5125 32.825L190.10625 32.825L190.10625 34.309376Q191.24687 32.590626 193.40312 32.590626Q194.34062 32.590626 195.12187 32.934376Q195.91875 33.2625 196.30937 33.809376Q196.7 34.35625 196.85625 35.10625Q196.95 35.60625 196.95 36.825L196.95 43.2L195.18437 43.2L195.18437 36.8875Q195.18437 35.809376 194.98125 35.278126Q194.77812 34.746876 194.24687 34.434376Q193.73125 34.121876 193.02812 34.121876Q191.90312 34.121876 191.09062 34.840626Q190.27812 35.54375 190.27812 37.528126L190.27812 43.2L188.5125 43.2ZM204.74687 43.2L204.74687 28.8875L210.1375 28.8875Q211.575 28.8875 212.325 29.0125Q213.37187 29.2 214.09062 29.7Q214.80937 30.184376 215.23125 31.075Q215.66875 31.965626 215.66875 33.028126Q215.66875 34.85625 214.49687 36.121876Q213.34062 37.371876 210.30937 37.371876L206.6375 37.371876L206.6375 43.2L204.74687 43.2ZM206.6375 35.684376L210.34062 35.684376Q212.16875 35.684376 212.93437 35.0125Q213.71562 34.325 213.71562 33.075Q213.71562 32.184376 213.2625 31.54375Q212.80937 30.903126 212.075 30.7Q211.59062 30.575 210.29375 30.575L206.6375 30.575L206.6375 35.684376ZM217.49687 43.2L217.49687 32.825L219.075 32.825L219.075 34.403126Q219.68437 33.29375 220.2 32.95Q220.71562 32.590626 221.325 32.590626Q222.21562 32.590626 223.1375 33.153126L222.52812 34.79375Q221.8875 34.403126 221.24687 34.403126Q220.66875 34.403126 220.2 34.7625Q219.74687 35.10625 219.54375 35.715626Q219.2625 36.653126 219.2625 37.7625L219.2625 43.2L217.49687 43.2ZM224.52812 30.903126L224.52812 28.8875L226.29375 28.8875L226.29375 30.903126L224.52812 30.903126ZM224.52812 43.2L224.52812 32.825L226.29375 32.825L226.29375 43.2L224.52812 43.2ZM231.40312 43.2L227.45 32.825L229.30937 32.825L231.54375 39.04375Q231.90312 40.04375 232.2 41.121876Q232.43437 40.309376 232.85625 39.153126L235.15312 32.825L236.96562 32.825L233.04375 43.2L231.40312 43.2ZM244.29375 41.91875Q243.30937 42.746876 242.40312 43.090626Q241.49687 43.434376 240.46562 43.434376Q238.7625 43.434376 237.84062 42.60625Q236.91875 41.7625 236.91875 40.465626Q236.91875 39.7 237.2625 39.075Q237.62187 38.45 238.18437 38.075Q238.74687 37.684376 239.45 37.48125Q239.96562 37.35625 241.0125 37.215626Q243.1375 36.965626 244.1375 36.621876Q244.15312 36.2625 244.15312 36.153126Q244.15312 35.090626 243.65312 34.6375Q242.98125 34.04375 241.65312 34.04375Q240.40312 34.04375 239.80937 34.48125Q239.23125 34.91875 238.95 36.028126L237.23125 35.79375Q237.46562 34.684376 237.99687 34.0125Q238.52812 33.325 239.54375 32.965626Q240.55937 32.590626 241.90312 32.590626Q243.23125 32.590626 244.05937 32.903126Q244.8875 33.215626 245.27812 33.7Q245.66875 34.16875 245.825 34.8875Q245.91875 35.340626 245.91875 36.5125L245.91875 38.85625Q245.91875 41.309376 246.02812 41.965626Q246.1375 42.60625 246.48125 43.2L244.6375 43.2Q244.37187 42.653126 244.29375 41.91875ZM244.1375 37.996876Q243.18437 38.3875 241.2625 38.653126Q240.18437 38.809376 239.73125 39.0125Q239.29375 39.2 239.04375 39.575Q238.79375 39.95 238.79375 40.41875Q238.79375 41.121876 239.325 41.590626Q239.85625 42.059376 240.8875 42.059376Q241.90312 42.059376 242.68437 41.621876Q243.48125 41.16875 243.85625 40.403126Q244.1375 39.79375 244.1375 38.6375L244.1375 37.996876ZM252.35625 41.621876L252.60625 43.184376Q251.87187 43.340626 251.27812 43.340626Q250.325 43.340626 249.79375 43.04375Q249.27812 42.73125 249.05937 42.246876Q248.84062 41.746876 248.84062 40.16875L248.84062 34.2L247.55937 34.2L247.55937 32.825L248.84062 32.825L248.84062 30.2625L250.59062 29.2L250.59062 32.825L252.35625 32.825L252.35625 34.2L250.59062 34.2L250.59062 40.2625Q250.59062 41.0125 250.68437 41.23125Q250.77812 41.434376 250.98125 41.575Q251.2 41.7 251.59062 41.7Q251.87187 41.7 252.35625 41.621876ZM261.6219 39.85625L263.4344 40.090626Q263.0125 41.66875 261.84064 42.559376Q260.6844 43.434376 258.8719 43.434376Q256.60626 43.434376 255.2625 42.04375Q253.93437 40.6375 253.93437 38.10625Q253.93437 35.48125 255.27812 34.04375Q256.6219 32.590626 258.77814 32.590626Q260.85626 32.590626 262.16876 34.0125Q263.4969 35.41875 263.4969 37.996876Q263.4969 38.153126 263.48126 38.465626L255.74687 38.465626Q255.84062 40.16875 256.71564 41.075Q257.59064 41.98125 258.8875 41.98125Q259.85626 41.98125 260.52814 41.48125Q261.21564 40.965626 261.6219 39.85625ZM255.84062 37.0125L261.6375 37.0125Q261.52814 35.715626 260.98126 35.059376Q260.1375 34.04375 258.79376 34.04375Q257.59064 34.04375 256.7625 34.85625Q255.93437 35.653126 255.84062 37.0125ZM278.2469 43.2L278.2469 41.8875Q277.2625 43.434376 275.34064 43.434376Q274.10626 43.434376 273.0594 42.746876Q272.02814 42.059376 271.45 40.840626Q270.8875 39.621876 270.8875 38.028126Q270.8875 36.465626 271.40314 35.2Q271.91876 33.934376 272.95 33.2625Q273.9969 32.590626 275.2625 32.590626Q276.2 32.590626 276.9344 32.996876Q277.66876 33.3875 278.1375 34.0125L278.1375 28.8875L279.8719 28.8875L279.8719 43.2L278.2469 43.2ZM272.6844 38.028126Q272.6844 40.0125 273.52814 40.996876Q274.3719 41.98125 275.5125 41.98125Q276.66876 41.98125 277.46564 41.04375Q278.27814 40.10625 278.27814 38.16875Q278.27814 36.04375 277.45 35.04375Q276.6375 34.04375 275.4344 34.04375Q274.2625 34.04375 273.46564 35.0125Q272.6844 35.965626 272.6844 38.028126ZM289.6219 39.85625L291.4344 40.090626Q291.0125 41.66875 289.84064 42.559376Q288.6844 43.434376 286.8719 43.434376Q284.60626 43.434376 283.2625 42.04375Q281.9344 40.6375 281.9344 38.10625Q281.9344 35.48125 283.27814 34.04375Q284.6219 32.590626 286.77814 32.590626Q288.85626 32.590626 290.16876 34.0125Q291.4969 35.41875 291.4969 37.996876Q291.4969 38.153126 291.48126 38.465626L283.7469 38.465626Q283.84064 40.16875 284.71564 41.075Q285.59064 41.98125 286.8875 41.98125Q287.85626 41.98125 288.52814 41.48125Q289.21564 40.965626 289.6219 39.85625ZM283.84064 37.0125L289.6375 37.0125Q289.52814 35.715626 288.98126 35.059376Q288.1375 34.04375 286.79376 34.04375Q285.59064 34.04375 284.7625 34.85625Q283.9344 35.653126 283.84064 37.0125ZM300.2469 43.2L300.2469 41.8875Q299.2625 43.434376 297.34064 43.434376Q296.10626 43.434376 295.0594 42.746876Q294.02814 42.059376 293.45 40.840626Q292.8875 39.621876 292.8875 38.028126Q292.8875 36.465626 293.40314 35.2Q293.91876 33.934376 294.95 33.2625Q295.9969 32.590626 297.2625 32.590626Q298.2 32.590626 298.9344 32.996876Q299.66876 33.3875 300.1375 34.0125L300.1375 28.8875L301.8719 28.8875L301.8719 43.2L300.2469 43.2ZM294.6844 38.028126Q294.6844 40.0125 295.52814 40.996876Q296.3719 41.98125 297.5125 41.98125Q298.66876 41.98125 299.46564 41.04375Q300.27814 40.10625 300.27814 38.16875Q300.27814 36.04375 299.45 35.04375Q298.6375 34.04375 297.4344 34.04375Q296.2625 34.04375 295.46564 35.0125Q294.6844 35.965626 294.6844 38.028126ZM304.52814 30.903126L304.52814 28.8875L306.29376 28.8875L306.29376 30.903126L304.52814 30.903126ZM304.52814 43.2L304.52814 32.825L306.29376 32.825L306.29376 43.2L304.52814 43.2ZM315.29376 39.403126L317.0125 39.621876Q316.73126 41.41875 315.5594 42.434376Q314.40314 43.434376 312.7 43.434376Q310.575 43.434376 309.27814 42.04375Q307.98126 40.653126 307.98126 38.059376Q307.98126 36.371876 308.52814 35.121876Q309.09064 33.85625 310.23126 33.23125Q311.3719 32.590626 312.71564 32.590626Q314.40314 32.590626 315.46564 33.45Q316.54376 34.309376 316.85626 35.871876L315.1375 36.1375Q314.90314 35.090626 314.27814 34.575Q313.65314 34.04375 312.77814 34.04375Q311.45 34.04375 310.6219 34.996876Q309.79376 35.95 309.79376 37.996876Q309.79376 40.090626 310.59064 41.04375Q311.3875 41.98125 312.6844 41.98125Q313.71564 41.98125 314.40314 41.35625Q315.10626 40.715626 315.29376 39.403126ZM325.29376 41.91875Q324.3094 42.746876 323.40314 43.090626Q322.4969 43.434376 321.46564 43.434376Q319.7625 43.434376 318.84064 42.60625Q317.91876 41.7625 317.91876 40.465626Q317.91876 39.7 318.2625 39.075Q318.6219 38.45 319.1844 38.075Q319.7469 37.684376 320.45 37.48125Q320.96564 37.35625 322.0125 37.215626Q324.1375 36.965626 325.1375 36.621876Q325.15314 36.2625 325.15314 36.153126Q325.15314 35.090626 324.65314 34.6375Q323.98126 34.04375 322.65314 34.04375Q321.40314 34.04375 320.8094 34.48125Q320.23126 34.91875 319.95 36.028126L318.23126 35.79375Q318.46564 34.684376 318.9969 34.0125Q319.52814 33.325 320.54376 32.965626Q321.5594 32.590626 322.90314 32.590626Q324.23126 32.590626 325.0594 32.903126Q325.8875 33.215626 326.27814 33.7Q326.66876 34.16875 326.825 34.8875Q326.91876 35.340626 326.91876 36.5125L326.91876 38.85625Q326.91876 41.309376 327.02814 41.965626Q327.1375 42.60625 327.48126 43.2L325.6375 43.2Q325.3719 42.653126 325.29376 41.91875ZM325.1375 37.996876Q324.1844 38.3875 322.2625 38.653126Q321.1844 38.809376 320.73126 39.0125Q320.29376 39.2 320.04376 39.575Q319.79376 39.95 319.79376 40.41875Q319.79376 41.121876 320.325 41.590626Q320.85626 42.059376 321.8875 42.059376Q322.90314 42.059376 323.6844 41.621876Q324.48126 41.16875 324.85626 40.403126Q325.1375 39.79375 325.1375 38.6375L325.1375 37.996876ZM333.35626 41.621876L333.60626 43.184376Q332.8719 43.340626 332.27814 43.340626Q331.325 43.340626 330.79376 43.04375Q330.27814 42.73125 330.0594 42.246876Q329.84064 41.746876 329.84064 40.16875L329.84064 34.2L328.5594 34.2L328.5594 32.825L329.84064 32.825L329.84064 30.2625L331.59064 29.2L331.59064 32.825L333.35626 32.825L333.35626 34.2L331.59064 34.2L331.59064 40.2625Q331.59064 41.0125 331.6844 41.23125Q331.77814 41.434376 331.98126 41.575Q332.2 41.7 332.59064 41.7Q332.8719 41.7 333.35626 41.621876ZM342.6219 39.85625L344.4344 40.090626Q344.0125 41.66875 342.84064 42.559376Q341.6844 43.434376 339.8719 43.434376Q337.60626 43.434376 336.2625 42.04375Q334.9344 40.6375 334.9344 38.10625Q334.9344 35.48125 336.27814 34.04375Q337.6219 32.590626 339.77814 32.590626Q341.85626 32.590626 343.16876 34.0125Q344.4969 35.41875 344.4969 37.996876Q344.4969 38.153126 344.48126 38.465626L336.7469 38.465626Q336.84064 40.16875 337.71564 41.075Q338.59064 41.98125 339.8875 41.98125Q340.85626 41.98125 341.52814 41.48125Q342.21564 40.965626 342.6219 39.85625ZM336.84064 37.0125L342.6375 37.0125Q342.52814 35.715626 341.98126 35.059376Q341.1375 34.04375 339.79376 34.04375Q338.59064 34.04375 337.7625 34.85625Q336.9344 35.653126 336.84064 37.0125ZM353.2469 43.2L353.2469 41.8875Q352.2625 43.434376 350.34064 43.434376Q349.10626 43.434376 348.0594 42.746876Q347.02814 42.059376 346.45 40.840626Q345.8875 39.621876 345.8875 38.028126Q345.8875 36.465626 346.40314 35.2Q346.91876 33.934376 347.95 33.2625Q348.9969 32.590626 350.2625 32.590626Q351.2 32.590626 351.9344 32.996876Q352.66876 33.3875 353.1375 34.0125L353.1375 28.8875L354.8719 28.8875L354.8719 43.2L353.2469 43.2ZM347.6844 38.028126Q347.6844 40.0125 348.52814 40.996876Q349.3719 41.98125 350.5125 41.98125Q351.66876 41.98125 352.46564 41.04375Q353.27814 40.10625 353.27814 38.16875Q353.27814 36.04375 352.45 35.04375Q351.6375 34.04375 350.4344 34.04375Q349.2625 34.04375 348.46564 35.0125Q347.6844 35.965626 347.6844 38.028126ZM363.73126 43.2L363.73126 28.8875L365.66876 28.8875L373.1844 40.121876L373.1844 28.8875L374.9969 28.8875L374.9969 43.2L373.0594 43.2L365.54376 31.95L365.54376 43.2L363.73126 43.2ZM375.8719 38.0125Q375.8719 35.1375 377.46564 33.746876Q378.8094 32.590626 380.73126 32.590626Q382.8719 32.590626 384.21564 33.996876Q385.575 35.403126 385.575 37.871876Q385.575 39.871876 384.98126 41.028126Q384.3875 42.16875 383.23126 42.809376Q382.09064 43.434376 380.73126 43.434376Q378.54376 43.434376 377.2 42.04375Q375.8719 40.6375 375.8719 38.0125ZM377.66876 38.0125Q377.66876 40.0125 378.52814 40.996876Q379.40314 41.98125 380.73126 41.98125Q382.04376 41.98125 382.90314 40.996876Q383.77814 39.996876 383.77814 37.95Q383.77814 36.028126 382.90314 35.04375Q382.02814 34.04375 380.73126 34.04375Q379.40314 34.04375 378.52814 35.04375Q377.66876 36.028126 377.66876 38.0125ZM394.2469 43.2L394.2469 41.8875Q393.2625 43.434376 391.34064 43.434376Q390.10626 43.434376 389.0594 42.746876Q388.02814 42.059376 387.45 40.840626Q386.8875 39.621876 386.8875 38.028126Q386.8875 36.465626 387.40314 35.2Q387.91876 33.934376 388.95 33.2625Q389.9969 32.590626 391.2625 32.590626Q392.2 32.590626 392.9344 32.996876Q393.66876 33.3875 394.1375 34.0125L394.1375 28.8875L395.8719 28.8875L395.8719 43.2L394.2469 43.2ZM388.6844 38.028126Q388.6844 40.0125 389.52814 40.996876Q390.3719 41.98125 391.5125 41.98125Q392.66876 41.98125 393.46564 41.04375Q394.27814 40.10625 394.27814 38.16875Q394.27814 36.04375 393.45 35.04375Q392.6375 34.04375 391.4344 34.04375Q390.2625 34.04375 389.46564 35.0125Q388.6844 35.965626 388.6844 38.028126ZM405.6219 39.85625L407.4344 40.090626Q407.0125 41.66875 405.84064 42.559376Q404.6844 43.434376 402.8719 43.434376Q400.60626 43.434376 399.2625 42.04375Q397.9344 40.6375 397.9344 38.10625Q397.9344 35.48125 399.27814 34.04375Q400.6219 32.590626 402.77814 32.590626Q404.85626 32.590626 406.16876 34.0125Q407.4969 35.41875 407.4969 37.996876Q407.4969 38.153126 407.48126 38.465626L399.7469 38.465626Q399.84064 40.16875 400.71564 41.075Q401.59064 41.98125 402.8875 41.98125Q403.85626 41.98125 404.52814 41.48125Q405.21564 40.965626 405.6219 39.85625ZM399.84064 37.0125L405.6375 37.0125Q405.52814 35.715626 404.98126 35.059376Q404.1375 34.04375 402.79376 34.04375Q401.59064 34.04375 400.7625 34.85625Q399.9344 35.653126 399.84064 37.0125ZM408.8094 40.10625L410.5594 39.825Q410.7 40.871876 411.3719 41.434376Q412.04376 41.98125 413.2469 41.98125Q414.45 41.98125 415.02814 41.496876Q415.6219 40.996876 415.6219 40.340626Q415.6219 39.746876 415.10626 39.403126Q414.7469 39.16875 413.3094 38.809376Q411.3719 38.309376 410.6219 37.965626Q409.8875 37.60625 409.4969 36.98125Q409.10626 36.340626 409.10626 35.575Q409.10626 34.8875 409.41876 34.29375Q409.7469 33.7 410.29376 33.309376Q410.7 33.0125 411.40314 32.809376Q412.1219 32.590626 412.9344 32.590626Q414.15314 32.590626 415.075 32.95Q415.9969 33.29375 416.4344 33.903126Q416.8719 34.496876 417.04376 35.496876L415.325 35.73125Q415.2 34.934376 414.6375 34.496876Q414.075 34.04375 413.0594 34.04375Q411.84064 34.04375 411.325 34.45Q410.8094 34.840626 410.8094 35.371876Q410.8094 35.715626 411.02814 35.996876Q411.23126 36.278126 411.7 36.465626Q411.96564 36.559376 413.2469 36.903126Q415.1219 37.403126 415.85626 37.73125Q416.59064 38.04375 417.0125 38.653126Q417.4344 39.246876 417.4344 40.153126Q417.4344 41.028126 416.91876 41.809376Q416.40314 42.590626 415.4344 43.0125Q414.46564 43.434376 413.2469 43.434376Q411.23126 43.434376 410.16876 42.590626Q409.10626 41.746876 408.8094 40.10625Z" fill-rule="nonzero"/></svg>